<svg width="48" height="24" viewBox="0 0 48 24" fill="none" xmlns="http://www.w3.org/2000/svg" xmlns:xlink="http://www.w3.org/1999/xlink">
<g opacity="0.35" style="isolation:isolate">
<path d="M-0.907,6C-0.907,3.055 1.481,0.667 4.426,0.667L37.759,0.667C40.705,0.667 43.093,3.055 43.093,6L43.093,18C43.093,20.946 40.705,23.333 37.759,23.333L4.426,23.333C1.481,23.333 -0.907,20.946 -0.907,18L-0.907,6Z" clip-rule="evenodd" fill-rule="evenodd" fill="#595454" fill-opacity="0" stroke="#000000" stroke-width="1" stroke-miterlimit="3.999327"/>
</g>
<g opacity="0.4" style="isolation:isolate">
<path d="M45.093,8L45.093,16C46.702,15.323 47.749,13.746 47.749,12C47.749,10.254 46.702,8.678 45.093,8Z" fill="#595454"/>
</g>
<path d="M3.093,7.333C3.093,5.861 4.287,4.667 5.759,4.667L36.426,4.667C37.899,4.667 39.093,5.861 39.093,7.333L39.093,16.667C39.093,18.14 37.899,19.333 36.426,19.333L5.759,19.333C4.287,19.333 3.093,18.14 3.093,16.667L3.093,7.333Z" fill="#595454"/>
</svg>
