<svg width="40" height="80" viewBox="0 0 40 80" fill="none" xmlns="http://www.w3.org/2000/svg" xmlns:xlink="http://www.w3.org/1999/xlink">
<path d="M20,69.3C22.6,69.3 24.8,68.4 26.6,66.6C28.4,64.8 29.3,62.6 29.3,60C29.3,57.4 28.4,55.2 26.6,53.4C24.8,51.6 22.6,50.7 20,50.7C17.4,50.7 15.2,51.6 13.4,53.4C11.6,55.2 10.7,57.4 10.7,60C10.7,62.6 11.6,64.8 13.4,66.6C15.2,68.4 17.4,69.3 20,69.3ZM20,80C17.267,80 14.683,79.475 12.25,78.425C9.817,77.375 7.692,75.942 5.875,74.125C4.058,72.308 2.625,70.183 1.575,67.75C0.525,65.317 0,62.733 0,60C0,57.267 0.525,54.683 1.575,52.25C2.625,49.817 4.058,47.692 5.875,45.875C7.692,44.058 9.817,42.625 12.25,41.575C14.683,40.525 17.267,40 20,40C22.733,40 25.317,40.525 27.75,41.575C30.183,42.625 32.308,44.058 34.125,45.875C35.942,47.692 37.375,49.817 38.425,52.25C39.475,54.683 40,57.267 40,60C40,62.733 39.475,65.317 38.425,67.75C37.375,70.183 35.942,72.308 34.125,74.125C32.308,75.942 30.183,77.375 27.75,78.425C25.317,79.475 22.733,80 20,80ZM20,77C24.667,77 28.667,75.333 32,72C35.333,68.667 37,64.667 37,60C37,55.333 35.333,51.333 32,48C28.667,44.667 24.667,43 20,43C15.333,43 11.333,44.667 8,48C4.667,51.333 3,55.333 3,60C3,64.667 4.667,68.667 8,72C11.333,75.333 15.333,77 20,77Z" fill="#3498DB"/>
<line x1="20" y1="0" x2="20" y2="42" stroke="#757373" stroke-width="2" stroke-miterlimit="3.999327"/>
</svg>
