<svg width="42" height="42" viewBox="0 0 42 42" fill="none" xmlns="http://www.w3.org/2000/svg" xmlns:xlink="http://www.w3.org/1999/xlink">
<path d="M39,21.5C39.828,21.5 40.5,20.828 40.5,20C40.5,19.172 39.828,18.5 39,18.5L39,21.5ZM21.5,1C21.5,0.172 20.828,-0.5 20,-0.5C19.172,-0.5 18.5,0.172 18.5,1L21.5,1ZM1,18.5C0.172,18.5 -0.5,19.172 -0.5,20C-0.5,20.828 0.172,21.5 1,21.5L1,18.5ZM5.222,21.5C6.05,21.5 6.722,20.828 6.722,20C6.722,19.172 6.05,18.5 5.222,18.5L5.222,21.5ZM18.5,39C18.5,39.828 19.172,40.5 20,40.5C20.828,40.5 21.5,39.828 21.5,39L18.5,39ZM5.222,19.998L3.722,19.998L5.222,19.998ZM39,18.5L34.778,18.5L34.778,21.5L39,21.5L39,18.5ZM18.5,1L18.5,5.222L21.5,5.222L21.5,1L18.5,1ZM1,21.5L5.222,21.5L5.222,18.5L1,18.5L1,21.5ZM21.5,39L21.5,34.778L18.5,34.778L18.5,39L21.5,39ZM20,36.278C24.317,36.278 28.458,34.563 31.511,31.51L29.39,29.389C26.899,31.879 23.522,33.278 20,33.278L20,36.278ZM31.511,31.51C34.564,28.457 36.278,24.317 36.278,20L33.278,20C33.278,23.522 31.88,26.898 29.39,29.389L31.511,31.51ZM36.278,20C36.278,15.683 34.564,11.541 31.511,8.488L29.39,10.609C31.88,13.099 33.278,16.478 33.278,20L36.278,20ZM31.511,8.488C28.458,5.435 24.317,3.722 20,3.722L20,6.722C23.522,6.722 26.9,8.119 29.39,10.609L31.511,8.488ZM20,3.722C15.683,3.722 11.543,5.435 8.49,8.488L10.611,10.609C13.101,8.119 16.478,6.722 20,6.722L20,3.722ZM8.49,8.488C5.437,11.54 3.722,15.681 3.722,19.998L6.722,19.998C6.722,16.476 8.121,13.099 10.611,10.609L8.49,8.488ZM3.722,19.998C3.722,24.315 5.437,28.456 8.49,31.508L10.611,29.387C8.121,26.897 6.722,23.52 6.722,19.998L3.722,19.998ZM8.49,31.508C11.542,34.561 15.682,36.278 20,36.278L20,33.278C16.479,33.278 13.102,31.877 10.611,29.387L8.49,31.508Z" fill="#DB6634" fill-opacity="0.91"/>
<path d="M20,11.556L20,10.056L20,11.556ZM11.556,20L10.056,20L11.556,20ZM20,29.944C22.637,29.944 25.167,28.896 27.032,27.032L24.91,24.91C23.608,26.213 21.842,26.944 20,26.944L20,29.944ZM27.032,27.032C28.896,25.167 29.944,22.637 29.944,20L26.944,20C26.944,21.842 26.213,23.608 24.91,24.91L27.032,27.032ZM29.944,20C29.944,17.363 28.896,14.834 27.032,12.969L24.91,15.09C26.213,16.392 26.944,18.158 26.944,20L29.944,20ZM27.032,12.969C25.167,11.104 22.637,10.056 20,10.056L20,13.056C21.842,13.056 23.608,13.788 24.91,15.09L27.032,12.969ZM20,10.056C17.363,10.056 14.834,11.104 12.969,12.969L15.09,15.09C16.392,13.788 18.158,13.056 20,13.056L20,10.056ZM12.969,12.969C11.104,14.834 10.056,17.363 10.056,20L13.056,20C13.056,18.158 13.788,16.392 15.09,15.09L12.969,12.969ZM10.056,20C10.056,22.637 11.104,25.167 12.969,27.032L15.09,24.91C13.788,23.608 13.056,21.842 13.056,20L10.056,20ZM12.969,27.032C14.834,28.896 17.363,29.944 20,29.944L20,26.944C18.158,26.944 16.392,26.213 15.09,24.91L12.969,27.032Z" fill="#DB6634" fill-opacity="0.91"/>
</svg>
