<svg width="30" height="34" viewBox="0 0 30 34" fill="none" xmlns="http://www.w3.org/2000/svg" xmlns:xlink="http://www.w3.org/1999/xlink">
<path d="M15,0.028C11.664,0.032 8.466,1.447 6.108,3.963C3.749,6.479 2.423,9.891 2.419,13.449C2.419,20.481 12.626,29.888 13.794,30.938L15.003,32.028L16.211,30.938C17.376,29.888 27.587,20.481 27.587,13.449C27.583,9.89 26.256,6.478 23.896,3.961C21.536,1.445 18.337,0.03 15,0.028L15,0.028ZM15,26.752C11.169,23.029 6.166,16.981 6.166,13.449C6.166,10.95 7.097,8.553 8.754,6.786C10.41,5.019 12.657,4.026 15,4.026C17.343,4.026 19.59,5.019 21.247,6.786C22.903,8.553 23.834,10.95 23.834,13.449C23.834,16.974 18.83,23.025 15,26.752Z" fill="#595454"/>
<path d="M15,17.332C17.069,17.332 18.746,15.543 18.746,13.336C18.746,11.129 17.069,9.34 15,9.34C12.931,9.34 11.254,11.129 11.254,13.336C11.254,15.543 12.931,17.332 15,17.332Z" fill="#595454"/>
</svg>
