<svg width="62" height="62" viewBox="0 0 62 62" fill="none" xmlns="http://www.w3.org/2000/svg" xmlns:xlink="http://www.w3.org/1999/xlink">
<mask id="mask_0_28_532" style="mask-type:alpha" maskUnits="userSpaceOnUse" x="0.941101" y="0.94104" width="30.176472" height="30.176472">
<circle cx="31.118" cy="31.118" r="30.176" fill="#EEEEEE"/>
</mask>
<g mask="url(#mask_0_28_532)">
<path d="M31.118,35.232C38.188,35.232 43.92,29.398 43.92,22.202C43.92,15.005 38.188,9.171 31.118,9.171C24.047,9.171 18.316,15.005 18.316,22.202C18.316,29.398 24.047,35.232 31.118,35.232Z" fill="#595454"/>
<path d="M31.118,39.576C20.517,39.588 11.926,48.332 11.914,59.122C11.914,60.322 12.87,61.294 14.048,61.294L48.187,61.294C49.366,61.294 50.321,60.322 50.321,59.122C50.309,48.332 41.718,39.588 31.118,39.576Z" fill="#595454"/>
</g>
</svg>
