<svg width="78" height="78" viewBox="0 0 78 78" fill="none" xmlns="http://www.w3.org/2000/svg" xmlns:xlink="http://www.w3.org/1999/xlink">
<mask id="mask_0_77_419" style="mask-type:alpha" maskUnits="userSpaceOnUse" x="-0.470581" y="-0.470459" width="38.911766" height="38.911766">
<circle cx="38.441" cy="38.441" r="38.912" fill="#EEEEEE"/>
</mask>
<g mask="url(#mask_0_77_419)">
<path d="M38.441,43.747C47.558,43.747 54.949,36.225 54.949,26.945C54.949,17.665 47.558,10.142 38.441,10.142C29.324,10.142 21.933,17.665 21.933,26.945C21.933,36.225 29.324,43.747 38.441,43.747Z" fill="#595454"/>
<path d="M38.441,49.348C24.772,49.364 13.694,60.639 13.679,74.553C13.679,76.099 14.911,77.353 16.43,77.353L60.452,77.353C61.971,77.353 63.203,76.099 63.203,74.553C63.188,60.639 52.111,49.364 38.441,49.348Z" fill="#595454"/>
</g>
</svg>
