<svg width="36" height="22" viewBox="0 0 36 22" fill="none" xmlns="http://www.w3.org/2000/svg" xmlns:xlink="http://www.w3.org/1999/xlink">
<path d="M32.426,-0.667L30.426,-0.667C29.322,-0.667 28.426,0.228 28.426,1.333L28.426,18.666C28.426,19.771 29.322,20.666 30.426,20.666L32.426,20.666C33.531,20.666 34.426,19.771 34.426,18.666L34.426,1.333C34.426,0.228 33.531,-0.667 32.426,-0.667ZM21.093,4L23.093,4C24.197,4 25.093,4.895 25.093,6L25.093,18.666C25.093,19.771 24.197,20.666 23.093,20.666L21.093,20.666C19.988,20.666 19.093,19.771 19.093,18.666L19.093,6C19.093,4.895 19.988,4 21.093,4ZM13.76,8.666L11.76,8.666C10.655,8.666 9.76,9.562 9.76,10.666L9.76,18.666C9.76,19.771 10.655,20.666 11.76,20.666L13.76,20.666C14.864,20.666 15.76,19.771 15.76,18.666L15.76,10.666C15.76,9.562 14.864,8.666 13.76,8.666ZM4.426,12.666L2.426,12.666C1.322,12.666 0.426,13.562 0.426,14.666L0.426,18.666C0.426,19.771 1.322,20.666 2.426,20.666L4.426,20.666C5.531,20.666 6.426,19.771 6.426,18.666L6.426,14.666C6.426,13.562 5.531,12.666 4.426,12.666Z" clip-rule="evenodd" fill-rule="evenodd" fill="#595454"/>
</svg>
