<svg width="36" height="22" viewBox="0 0 36 22" fill="none" xmlns="http://www.w3.org/2000/svg" xmlns:xlink="http://www.w3.org/1999/xlink">
<path d="M32.426,-0.667L30.426,-0.667C29.322,-0.667 28.426,0.229 28.426,1.333L28.426,18.667C28.426,19.771 29.322,20.667 30.426,20.667L32.426,20.667C33.531,20.667 34.426,19.771 34.426,18.667L34.426,1.333C34.426,0.229 33.531,-0.667 32.426,-0.667ZM21.093,4L23.093,4C24.197,4 25.093,4.895 25.093,6L25.093,18.667C25.093,19.771 24.197,20.667 23.093,20.667L21.093,20.667C19.988,20.667 19.093,19.771 19.093,18.667L19.093,6C19.093,4.895 19.988,4 21.093,4ZM13.76,8.667L11.76,8.667C10.655,8.667 9.76,9.562 9.76,10.667L9.76,18.667C9.76,19.771 10.655,20.667 11.76,20.667L13.76,20.667C14.864,20.667 15.76,19.771 15.76,18.667L15.76,10.667C15.76,9.562 14.864,8.667 13.76,8.667ZM4.426,12.667L2.426,12.667C1.322,12.667 0.426,13.562 0.426,14.667L0.426,18.667C0.426,19.771 1.322,20.667 2.426,20.667L4.426,20.667C5.531,20.667 6.426,19.771 6.426,18.667L6.426,14.667C6.426,13.562 5.531,12.667 4.426,12.667Z" clip-rule="evenodd" fill-rule="evenodd" fill="#595454"/>
</svg>
