<svg width="38" height="40" viewBox="0 0 38 40" fill="none" xmlns="http://www.w3.org/2000/svg" xmlns:xlink="http://www.w3.org/1999/xlink">
<path d="M18.319,0C19.699,0 20.817,1.119 20.817,2.499L20.817,10.827C20.817,12.207 19.699,13.326 18.319,13.326C16.939,13.326 15.82,12.207 15.82,10.827L15.82,2.499C15.82,1.119 16.939,0 18.319,0Z" fill="#1E40AF"/>
<path d="M24.149,8.229C24.136,9.067 24.559,9.853 25.266,10.304C31.547,14.141 33.527,22.343 29.69,28.623C25.853,34.903 17.651,36.884 11.371,33.047C5.091,29.209 3.11,21.008 6.948,14.728C8.044,12.933 9.549,11.424 11.341,10.322C12.06,9.871 12.495,9.079 12.489,8.23C12.493,6.85 11.377,5.729 9.997,5.725C9.523,5.723 9.059,5.857 8.658,6.11C0.061,11.449 -2.579,22.746 2.761,31.342C8.1,39.939 19.397,42.579 27.993,37.239C36.589,31.9 39.23,20.603 33.89,12.007C32.404,9.614 30.386,7.596 27.993,6.11C26.822,5.371 25.274,5.722 24.535,6.893C24.283,7.292 24.149,7.756 24.149,8.229Z" fill="#1E40AF"/>
</svg>
