<svg width="20" height="20" viewBox="0 0 20 20" fill="none" xmlns="http://www.w3.org/2000/svg" xmlns:xlink="http://www.w3.org/1999/xlink">
<path d="M18.957,9.971C18.957,11.767 18.424,13.524 17.425,15.017C16.427,16.511 15.007,17.675 13.347,18.361C11.687,19.048 9.86,19.227 8.098,18.875C6.336,18.523 4.718,17.656 3.449,16.384C2.18,15.112 1.317,13.492 0.969,11.73C0.621,9.967 0.803,8.141 1.494,6.482C2.184,4.823 3.351,3.406 4.847,2.411C6.343,1.416 8.1,0.887 9.897,0.891C11.088,0.891 12.268,1.126 13.369,1.582C14.469,2.039 15.469,2.708 16.31,3.551C17.152,4.395 17.819,5.396 18.273,6.497C18.727,7.599 18.96,8.779 18.957,9.971Z" fill="#000000"/>
</svg>
