<svg width="26" height="26" viewBox="0 0 26 26" fill="none" xmlns="http://www.w3.org/2000/svg" xmlns:xlink="http://www.w3.org/1999/xlink">
<path d="M13,17.136C14.142,17.136 15.117,16.733 15.925,15.925C16.733,15.117 17.136,14.142 17.136,13C17.136,11.858 16.733,10.883 15.925,10.075C15.117,9.267 14.142,8.864 13,8.864C11.858,8.864 10.883,9.267 10.075,10.075C9.267,10.883 8.864,11.858 8.864,13C8.864,14.142 9.267,15.117 10.075,15.925C10.883,16.733 11.858,17.136 13,17.136ZM13,18.909C11.365,18.909 9.972,18.333 8.819,17.181C7.667,16.028 7.091,14.635 7.091,13C7.091,11.365 7.667,9.972 8.819,8.819C9.972,7.667 11.365,7.091 13,7.091C14.635,7.091 16.028,7.667 17.181,8.819C18.333,9.972 18.909,11.365 18.909,13C18.909,14.635 18.333,16.028 17.181,17.181C16.028,18.333 14.635,18.909 13,18.909ZM0.886,13.886C0.63,13.886 0.419,13.803 0.251,13.635C0.084,13.468 0,13.256 0,13C0,12.744 0.084,12.532 0.251,12.365C0.419,12.197 0.63,12.114 0.886,12.114L3.841,12.114C4.097,12.114 4.309,12.197 4.476,12.365C4.644,12.532 4.727,12.744 4.727,13C4.727,13.256 4.644,13.468 4.476,13.635C4.309,13.803 4.097,13.886 3.841,13.886L0.886,13.886ZM22.159,13.886C21.903,13.886 21.691,13.803 21.524,13.635C21.356,13.468 21.273,13.256 21.273,13C21.273,12.744 21.356,12.532 21.524,12.365C21.691,12.197 21.903,12.114 22.159,12.114L25.114,12.114C25.37,12.114 25.581,12.197 25.749,12.365C25.916,12.532 26,12.744 26,13C26,13.256 25.916,13.468 25.749,13.635C25.581,13.803 25.37,13.886 25.114,13.886L22.159,13.886ZM13,4.727C12.744,4.727 12.532,4.644 12.365,4.476C12.197,4.309 12.114,4.097 12.114,3.841L12.114,0.886C12.114,0.63 12.197,0.419 12.365,0.251C12.532,0.084 12.744,0 13,0C13.256,0 13.468,0.084 13.635,0.251C13.803,0.419 13.886,0.63 13.886,0.886L13.886,3.841C13.886,4.097 13.803,4.309 13.635,4.476C13.468,4.644 13.256,4.727 13,4.727ZM13,26C12.744,26 12.532,25.916 12.365,25.749C12.197,25.581 12.114,25.37 12.114,25.114L12.114,22.159C12.114,21.903 12.197,21.691 12.365,21.524C12.532,21.356 12.744,21.273 13,21.273C13.256,21.273 13.468,21.356 13.635,21.524C13.803,21.691 13.886,21.903 13.886,22.159L13.886,25.114C13.886,25.37 13.803,25.581 13.635,25.749C13.468,25.916 13.256,26 13,26ZM5.909,7.15L4.225,5.495C4.048,5.318 3.964,5.106 3.974,4.86C3.984,4.614 4.067,4.402 4.225,4.225C4.402,4.048 4.614,3.959 4.86,3.959C5.106,3.959 5.318,4.048 5.495,4.225L7.15,5.909C7.308,6.086 7.386,6.293 7.386,6.53C7.386,6.766 7.308,6.963 7.15,7.12C6.992,7.298 6.791,7.386 6.544,7.386C6.298,7.386 6.086,7.308 5.909,7.15ZM20.505,21.775L18.85,20.091C18.692,19.914 18.614,19.702 18.614,19.456C18.614,19.209 18.702,19.008 18.88,18.85C19.037,18.673 19.234,18.584 19.47,18.584C19.707,18.584 19.914,18.673 20.091,18.85L21.775,20.505C21.952,20.682 22.036,20.894 22.026,21.14C22.016,21.386 21.933,21.598 21.775,21.775C21.598,21.952 21.386,22.041 21.14,22.041C20.894,22.041 20.682,21.952 20.505,21.775ZM18.85,7.15C18.673,6.973 18.584,6.766 18.584,6.53C18.584,6.293 18.673,6.086 18.85,5.909L20.505,4.225C20.682,4.048 20.894,3.964 21.14,3.974C21.386,3.984 21.598,4.067 21.775,4.225C21.952,4.402 22.041,4.614 22.041,4.86C22.041,5.106 21.952,5.318 21.775,5.495L20.091,7.15C19.933,7.308 19.731,7.386 19.485,7.386C19.239,7.386 19.027,7.308 18.85,7.15ZM4.225,21.775C4.048,21.598 3.959,21.386 3.959,21.14C3.959,20.894 4.048,20.682 4.225,20.505L5.909,18.85C6.086,18.673 6.293,18.584 6.53,18.584C6.766,18.584 6.973,18.673 7.15,18.85C7.327,19.027 7.416,19.234 7.416,19.47C7.416,19.707 7.327,19.914 7.15,20.091L5.495,21.775C5.318,21.952 5.106,22.036 4.86,22.026C4.614,22.016 4.402,21.933 4.225,21.775Z" fill="#595454"/>
</svg>
