<svg width="40" height="40" viewBox="0 0 40 40" fill="none" xmlns="http://www.w3.org/2000/svg" xmlns:xlink="http://www.w3.org/1999/xlink">
<path d="M20,0C16.044,0 12.178,1.173 8.889,3.371C5.6,5.568 3.036,8.692 1.522,12.346C0.009,16.001 -0.387,20.022 0.384,23.902C1.156,27.781 3.061,31.345 5.858,34.142C8.655,36.939 12.219,38.844 16.098,39.616C19.978,40.387 23.999,39.991 27.654,38.478C31.308,36.964 34.432,34.4 36.629,31.111C38.827,27.822 40,23.956 40,20C39.994,14.697 37.885,9.614 34.136,5.864C30.386,2.115 25.303,0.006 20,0ZM20,36.667C16.704,36.667 13.481,35.689 10.74,33.858C8,32.026 5.863,29.423 4.602,26.378C3.341,23.333 3.01,19.982 3.654,16.748C4.297,13.515 5.884,10.546 8.215,8.215C10.546,5.884 13.515,4.297 16.749,3.654C19.982,3.011 23.333,3.341 26.378,4.602C29.423,5.863 32.026,8 33.858,10.74C35.689,13.481 36.667,16.704 36.667,20C36.662,24.419 34.904,28.655 31.78,31.78C28.655,34.904 24.419,36.662 20,36.667Z" fill="#1E40AF"/>
<path d="M20,16.667L18.333,16.667C17.891,16.667 17.467,16.842 17.155,17.155C16.842,17.467 16.667,17.891 16.667,18.333C16.667,18.775 16.842,19.199 17.155,19.512C17.467,19.824 17.891,20 18.333,20L20,20L20,30C20,30.442 20.176,30.866 20.488,31.179C20.801,31.491 21.225,31.667 21.667,31.667C22.109,31.667 22.533,31.491 22.845,31.179C23.158,30.866 23.333,30.442 23.333,30L23.333,20C23.333,19.116 22.982,18.268 22.357,17.643C21.732,17.018 20.884,16.667 20,16.667Z" fill="#1E40AF"/>
<path d="M20,13.333C21.381,13.333 22.5,12.214 22.5,10.833C22.5,9.453 21.381,8.333 20,8.333C18.619,8.333 17.5,9.453 17.5,10.833C17.5,12.214 18.619,13.333 20,13.333Z" fill="#1E40AF"/>
</svg>
