<svg width="44" height="44" viewBox="0 0 44 44" fill="none" xmlns="http://www.w3.org/2000/svg" xmlns:xlink="http://www.w3.org/1999/xlink">
<path d="M43.197,39.316L34.68,30.797C41.053,22.281 39.315,10.212 30.799,3.84C22.283,-2.532 10.213,-0.795 3.84,7.721C-2.532,16.236 -0.795,28.305 7.722,34.677C14.562,39.796 23.958,39.796 30.799,34.677L39.32,43.197C40.39,44.268 42.126,44.268 43.197,43.197C44.268,42.126 44.268,40.391 43.197,39.32L43.197,39.316ZM19.331,33.033C11.763,33.033 5.627,26.898 5.627,19.33C5.627,11.762 11.763,5.627 19.331,5.627C26.9,5.627 33.036,11.762 33.036,19.33C33.028,26.894 26.897,33.025 19.331,33.033Z" fill="#AAA9A9"/>
</svg>
