<svg width="50" height="44" viewBox="0 0 50 44" fill="none" xmlns="http://www.w3.org/2000/svg" xmlns:xlink="http://www.w3.org/1999/xlink">
<path d="M35.01,0C32.758,0.035 30.555,0.664 28.623,1.823C26.692,2.981 25.1,4.629 24.01,6.6C22.919,4.629 21.328,2.981 19.396,1.823C17.465,0.664 15.262,0.035 13.01,0C9.42,0.156 6.037,1.727 3.601,4.368C1.165,7.01 -0.126,10.509 0.01,14.1C0.01,23.194 9.582,33.126 17.61,39.86C19.402,41.366 21.668,42.192 24.01,42.192C26.351,42.192 28.617,41.366 30.41,39.86C38.438,33.126 48.01,23.194 48.01,14.1C48.145,10.509 46.854,7.01 44.418,4.368C41.982,1.727 38.6,0.156 35.01,0ZM27.84,36.8C26.768,37.703 25.411,38.198 24.01,38.198C22.608,38.198 21.252,37.703 20.18,36.8C9.904,28.178 4.01,19.906 4.01,14.1C3.873,11.569 4.742,9.087 6.428,7.195C8.114,5.303 10.48,4.155 13.01,4C15.539,4.155 17.905,5.303 19.591,7.195C21.277,9.087 22.146,11.569 22.01,14.1C22.01,14.63 22.22,15.139 22.595,15.514C22.971,15.889 23.479,16.1 24.01,16.1C24.54,16.1 25.049,15.889 25.424,15.514C25.799,15.139 26.01,14.63 26.01,14.1C25.873,11.569 26.742,9.087 28.428,7.195C30.114,5.303 32.48,4.155 35.01,4C37.539,4.155 39.905,5.303 41.591,7.195C43.277,9.087 44.146,11.569 44.01,14.1C44.01,19.906 38.116,28.178 27.84,36.792L27.84,36.8Z" fill="#1E40AF"/>
</svg>
