<svg width="32" height="32" viewBox="0 0 32 32" fill="none" xmlns="http://www.w3.org/2000/svg" xmlns:xlink="http://www.w3.org/1999/xlink">
<path d="M0,16C0,19.165 0.938,22.258 2.696,24.889C4.455,27.52 6.953,29.571 9.877,30.782C12.801,31.993 16.018,32.31 19.121,31.693C22.225,31.075 25.076,29.551 27.314,27.314C29.551,25.076 31.075,22.225 31.693,19.121C32.31,16.018 31.993,12.801 30.782,9.877C29.571,6.953 27.52,4.455 24.889,2.696C22.258,0.938 19.164,0 16,0C11.758,0.005 7.691,1.692 4.691,4.691C1.692,7.691 0.005,11.758 0,16ZM21.333,16C21.334,16.976 20.978,17.919 20.331,18.649C19.943,19.085 19.565,19.499 19.295,19.769L15.529,23.6C15.409,23.733 15.263,23.841 15.099,23.916C14.936,23.991 14.76,24.033 14.58,24.038C14.401,24.043 14.222,24.012 14.055,23.947C13.887,23.881 13.735,23.782 13.607,23.657C13.479,23.531 13.377,23.38 13.309,23.214C13.24,23.048 13.206,22.87 13.208,22.69C13.21,22.511 13.248,22.333 13.32,22.169C13.392,22.005 13.497,21.856 13.628,21.733L17.4,17.893C17.649,17.643 17.988,17.269 18.333,16.881C18.548,16.638 18.667,16.324 18.667,15.999C18.667,15.675 18.548,15.361 18.333,15.117C17.989,14.731 17.651,14.357 17.409,14.115L13.628,10.267C13.497,10.144 13.392,9.995 13.32,9.831C13.248,9.667 13.21,9.489 13.208,9.31C13.206,9.13 13.24,8.952 13.309,8.786C13.377,8.62 13.479,8.469 13.607,8.343C13.735,8.218 13.887,8.119 14.055,8.053C14.222,7.988 14.401,7.957 14.58,7.962C14.76,7.967 14.936,8.009 15.099,8.084C15.263,8.159 15.409,8.267 15.529,8.4L19.301,12.239C19.568,12.505 19.941,12.915 20.327,13.349C20.976,14.08 21.334,15.023 21.333,16Z" fill="#BBB9B9"/>
</svg>
