<svg width="36" height="28" viewBox="0 0 36 28" fill="none" xmlns="http://www.w3.org/2000/svg" xmlns:xlink="http://www.w3.org/1999/xlink">
<path d="M10.5,4.667L34.5,4.667C34.898,4.667 35.279,4.503 35.561,4.211C35.842,3.919 36,3.524 36,3.111C36,2.699 35.842,2.303 35.561,2.011C35.279,1.719 34.898,1.556 34.5,1.556L10.5,1.556C10.102,1.556 9.721,1.719 9.439,2.011C9.158,2.303 9,2.699 9,3.111C9,3.524 9.158,3.919 9.439,4.211C9.721,4.503 10.102,4.667 10.5,4.667Z" fill="#595454"/>
<path d="M34.5,12.444L10.5,12.444C10.102,12.444 9.721,12.608 9.439,12.9C9.158,13.192 9,13.587 9,14C9,14.413 9.158,14.808 9.439,15.1C9.721,15.392 10.102,15.556 10.5,15.556L34.5,15.556C34.898,15.556 35.279,15.392 35.561,15.1C35.842,14.808 36,14.413 36,14C36,13.587 35.842,13.192 35.561,12.9C35.279,12.608 34.898,12.444 34.5,12.444Z" fill="#595454"/>
<path d="M34.5,23.333L10.5,23.333C10.102,23.333 9.721,23.497 9.439,23.789C9.158,24.081 9,24.476 9,24.889C9,25.301 9.158,25.697 9.439,25.989C9.721,26.281 10.102,26.444 10.5,26.444L34.5,26.444C34.898,26.444 35.279,26.281 35.561,25.989C35.842,25.697 36,25.301 36,24.889C36,24.476 35.842,24.081 35.561,23.789C35.279,23.497 34.898,23.333 34.5,23.333Z" fill="#595454"/>
<path d="M3,6.222C4.657,6.222 6,4.829 6,3.111C6,1.393 4.657,0 3,0C1.343,0 0,1.393 0,3.111C0,4.829 1.343,6.222 3,6.222Z" fill="#595454"/>
<path d="M3,17.111C4.657,17.111 6,15.718 6,14C6,12.282 4.657,10.889 3,10.889C1.343,10.889 0,12.282 0,14C0,15.718 1.343,17.111 3,17.111Z" fill="#595454"/>
<path d="M3,28C4.657,28 6,26.607 6,24.889C6,23.171 4.657,21.778 3,21.778C1.343,21.778 0,23.171 0,24.889C0,26.607 1.343,28 3,28Z" fill="#595454"/>
</svg>
