<svg width="44" height="50" viewBox="0 0 44 50" fill="none" xmlns="http://www.w3.org/2000/svg" xmlns:xlink="http://www.w3.org/1999/xlink">
<path d="M43.138,27.324L39.338,13.652C38.224,9.646 35.804,6.128 32.461,3.657C29.118,1.185 25.045,-0.098 20.889,0.011C16.733,0.12 12.733,1.615 9.524,4.258C6.316,6.901 4.083,10.541 3.18,14.6L0.238,27.83C-0.087,29.292 -0.079,30.808 0.26,32.266C0.6,33.725 1.262,35.089 2.199,36.257C3.136,37.425 4.324,38.368 5.674,39.016C7.024,39.663 8.503,40 10,40L12.228,40C12.687,42.26 13.914,44.293 15.7,45.752C17.486,47.212 19.722,48.01 22.028,48.01C24.335,48.01 26.571,47.212 28.357,45.752C30.143,44.293 31.369,42.26 31.828,40L33.504,40C35.046,40 36.567,39.643 37.948,38.959C39.329,38.274 40.533,37.279 41.466,36.051C42.399,34.824 43.035,33.398 43.326,31.884C43.616,30.37 43.551,28.809 43.138,27.324ZM22.028,44C20.792,43.995 19.587,43.608 18.579,42.891C17.571,42.175 16.808,41.165 16.396,40L27.66,40C27.248,41.165 26.486,42.175 25.478,42.891C24.47,43.608 23.265,43.995 22.028,44ZM38.28,33.63C37.723,34.369 37.001,34.968 36.172,35.38C35.342,35.791 34.428,36.003 33.502,36L10,36C9.102,36 8.215,35.798 7.405,35.409C6.595,35.02 5.883,34.454 5.321,33.753C4.759,33.053 4.361,32.234 4.157,31.359C3.954,30.484 3.949,29.575 4.144,28.698L7.084,15.466C7.793,12.278 9.547,9.419 12.067,7.343C14.587,5.266 17.73,4.092 20.994,4.006C24.258,3.921 27.457,4.929 30.083,6.871C32.708,8.812 34.61,11.576 35.484,14.722L39.284,28.394C39.535,29.284 39.575,30.221 39.401,31.13C39.227,32.039 38.843,32.895 38.28,33.63Z" fill="#1E40AF"/>
</svg>
