<svg width="110" height="96" viewBox="0 0 110 96" fill="none" xmlns="http://www.w3.org/2000/svg" xmlns:xlink="http://www.w3.org/1999/xlink">
<path d="M78,-0.667C63.51,-0.667 51.75,9.787 51.75,22.667C51.75,35.547 63.51,46 78,46C92.49,46 104.25,35.547 104.25,22.667C104.25,9.787 92.49,-0.667 78,-0.667ZM78,36.667C69.285,36.667 62.25,30.413 62.25,22.667C62.25,14.92 69.285,8.667 78,8.667C86.715,8.667 93.75,14.92 93.75,22.667C93.75,30.413 86.715,36.667 78,36.667ZM93.75,64.667L83.25,64.667C83.25,59.067 79.312,54.027 73.433,52.067L41.093,41.333L-0.75,41.333L-0.75,92.667L30.75,92.667L30.75,85.947L67.5,95L109.5,83.333L109.5,78.667C109.5,70.92 102.465,64.667 93.75,64.667ZM20.25,83.333L9.75,83.333L9.75,50.667L20.25,50.667L20.25,83.333ZM67.342,85.247L30.75,76.333L30.75,50.667L39.202,50.667L69.757,60.793C71.543,61.4 72.75,62.94 72.75,64.667C72.75,64.667 62.25,64.433 60.675,63.967L48.18,60.28L44.872,69.147L57.368,72.833C60.045,73.627 62.827,74 65.662,74L93.75,74C95.798,74 97.635,75.12 98.475,76.66L67.342,85.247Z" fill="#FFFFFF"/>
</svg>
