<svg width="100" height="34" viewBox="0 0 100 34" fill="none" xmlns="http://www.w3.org/2000/svg" xmlns:xlink="http://www.w3.org/1999/xlink">
<path d="M37.971,0.421L24.879,31.658L16.337,31.658L9.9,6.729C9.504,5.192 9.167,4.633 7.975,3.979C6.029,2.929 2.825,1.942 0,1.325L0.196,0.417L13.942,0.417C15.696,0.417 17.271,1.587 17.667,3.6L21.071,21.679L29.479,0.417L37.971,0.417L37.971,0.421ZM71.433,21.454C71.471,13.217 60.033,12.767 60.117,9.079C60.138,7.954 61.204,6.762 63.542,6.462C64.7,6.308 67.892,6.196 71.512,7.854L72.929,1.233C70.983,0.525 68.479,-0.15 65.371,-0.15C57.383,-0.15 51.762,4.096 51.717,10.175C51.662,14.671 55.729,17.179 58.792,18.675C61.937,20.208 62.992,21.183 62.979,22.558C62.958,24.654 60.467,25.571 58.146,25.613C54.083,25.675 51.725,24.513 49.842,23.638L48.379,30.488C50.262,31.354 53.754,32.104 57.367,32.15C65.854,32.15 71.408,27.946 71.433,21.454ZM92.525,31.654L100,31.654L93.479,0.417L86.579,0.417C85.029,0.417 83.721,1.321 83.137,2.708L71.021,31.654L79.504,31.654L81.188,26.988L91.554,26.988L92.525,31.654ZM83.508,20.588L87.762,8.858L90.208,20.588L83.508,20.588ZM49.517,0.421L42.829,31.658L34.75,31.658L41.437,0.421L49.517,0.421Z" fill="#000000"/>
</svg>
