<svg width="34" height="34" viewBox="0 0 34 34" fill="none" xmlns="http://www.w3.org/2000/svg" xmlns:xlink="http://www.w3.org/1999/xlink">
<path d="M6.139,15.678L27.908,15.678L27.908,18.511L6.139,18.511L6.139,15.678ZM2.833,0C2.078,0 1.417,0.283 0.85,0.85C0.283,1.417 0,2.078 0,2.833L0,31.167C0,31.922 0.283,32.583 0.85,33.15C1.417,33.717 2.078,34 2.833,34L31.167,34C31.922,34 32.583,33.717 33.15,33.15C33.717,32.583 34,31.922 34,31.167L34,2.833C34,2.078 33.717,1.417 33.15,0.85C32.583,0.283 31.922,0 31.167,0L2.833,0Z" fill="#757373"/>
</svg>
