<svg width="44" height="44" viewBox="0 0 44 44" fill="none" xmlns="http://www.w3.org/2000/svg" xmlns:xlink="http://www.w3.org/1999/xlink">
<path d="M38.724,23.836C40.123,23.835 41.464,23.278 42.453,22.289C43.442,21.3 43.999,19.959 44,18.56C43.998,17.082 43.647,15.625 42.976,14.307C42.306,12.989 41.333,11.848 40.139,10.977L27.516,1.801C25.915,0.631 23.983,0 22,0C20.017,0 18.085,0.631 16.484,1.801L3.861,10.977C2.667,11.848 1.694,12.989 1.024,14.307C0.353,15.625 0.002,17.082 0,18.56C0.001,19.959 0.558,21.3 1.547,22.289C2.536,23.278 3.877,23.835 5.276,23.836L20.167,23.836L20.167,42.167C20.167,42.653 20.36,43.119 20.704,43.463C21.047,43.807 21.514,44 22,44C22.486,44 22.953,43.807 23.296,43.463C23.64,43.119 23.833,42.653 23.833,42.167L23.833,23.836L38.724,23.836ZM28.417,14.808C29.016,15.709 29.335,16.767 29.333,17.849L29.333,20.17L23.833,20.17L23.833,7.912L28.417,14.808ZM37.983,13.937C38.711,14.469 39.303,15.164 39.712,15.968C40.12,16.771 40.333,17.659 40.333,18.56C40.333,18.987 40.163,19.396 39.861,19.698C39.56,20 39.15,20.169 38.724,20.17L33,20.17L33,17.849C33.002,16.045 32.469,14.281 31.469,12.779L26.886,5.868L37.983,13.937ZM3.667,18.56C3.667,17.659 3.88,16.771 4.288,15.968C4.697,15.164 5.289,14.469 6.017,13.937L17.121,5.872L12.538,12.782C11.536,14.282 11.001,16.045 11,17.849L11,20.17L5.276,20.17C4.85,20.169 4.44,20 4.139,19.698C3.837,19.396 3.667,18.987 3.667,18.56ZM14.667,20.17L14.667,17.849C14.665,16.767 14.984,15.709 15.583,14.808L20.167,7.912L20.167,20.17L14.667,20.17Z" fill="#3498DB"/>
<path d="M7.333,34.835L3.667,34.835L3.667,29.335C3.667,28.849 3.474,28.383 3.13,28.039C2.786,27.695 2.32,27.502 1.833,27.502C1.347,27.502 0.881,27.695 0.537,28.039C0.193,28.383 0,28.849 0,29.335L0,42.167C0,42.653 0.193,43.119 0.537,43.463C0.881,43.807 1.347,44 1.833,44C2.32,44 2.786,43.807 3.13,43.463C3.474,43.119 3.667,42.653 3.667,42.167L3.667,38.501L7.333,38.501C7.82,38.501 8.286,38.694 8.63,39.038C8.974,39.381 9.167,39.848 9.167,40.334L9.167,42.167C9.167,42.653 9.36,43.119 9.704,43.463C10.047,43.807 10.514,44 11,44C11.486,44 11.953,43.807 12.296,43.463C12.64,43.119 12.833,42.653 12.833,42.167L12.833,40.334C12.833,38.875 12.254,37.477 11.222,36.445C10.191,35.414 8.792,34.835 7.333,34.835Z" fill="#3498DB"/>
<path d="M42.167,27.502C41.68,27.502 41.214,27.695 40.87,28.039C40.526,28.383 40.333,28.849 40.333,29.335L40.333,34.835L36.667,34.835C35.208,34.835 33.809,35.414 32.778,36.445C31.746,37.477 31.167,38.875 31.167,40.334L31.167,42.167C31.167,42.653 31.36,43.119 31.704,43.463C32.047,43.807 32.514,44 33,44C33.486,44 33.953,43.807 34.296,43.463C34.64,43.119 34.833,42.653 34.833,42.167L34.833,40.334C34.833,39.848 35.026,39.381 35.37,39.038C35.714,38.694 36.18,38.501 36.667,38.501L40.333,38.501L40.333,42.167C40.333,42.653 40.526,43.119 40.87,43.463C41.214,43.807 41.68,44 42.167,44C42.653,44 43.119,43.807 43.463,43.463C43.807,43.119 44,42.653 44,42.167L44,29.335C44,28.849 43.807,28.383 43.463,28.039C43.119,27.695 42.653,27.502 42.167,27.502Z" fill="#3498DB"/>
</svg>
