<svg width="32" height="32" viewBox="0 0 32 32" fill="none" xmlns="http://www.w3.org/2000/svg" xmlns:xlink="http://www.w3.org/1999/xlink">
<path d="M31.416,28.594L25.222,22.397C29.857,16.204 28.593,7.427 22.399,2.793C16.206,-1.841 7.428,-0.578 2.793,5.615C-1.842,11.808 -0.578,20.586 5.616,25.22C10.591,28.943 17.424,28.943 22.399,25.22L28.596,31.416C29.375,32.195 30.637,32.195 31.416,31.416C32.195,30.637 32.195,29.375 31.416,28.596L31.416,28.594ZM14.059,24.024C8.555,24.024 4.092,19.562 4.092,14.058C4.092,8.554 8.555,4.092 14.059,4.092C19.564,4.092 24.026,8.554 24.026,14.058C24.02,19.56 19.561,24.018 14.059,24.024Z" fill="#AAA9A9"/>
</svg>
