<svg width="38" height="34" viewBox="0 0 38 34" fill="none" xmlns="http://www.w3.org/2000/svg" xmlns:xlink="http://www.w3.org/1999/xlink">
<path d="M34.913,12.606C33.559,10.388 31.851,8.407 29.857,6.742L34.057,2.542C34.33,2.259 34.481,1.88 34.478,1.487C34.474,1.094 34.317,0.717 34.038,0.439C33.76,0.161 33.384,0.003 32.991,0C32.597,-0.003 32.219,0.148 31.936,0.421L27.368,4.995C24.537,3.313 21.3,2.436 18.007,2.46C8.72,2.46 3.428,8.817 1.1,12.606C0.381,13.769 0,15.109 0,16.477C0,17.845 0.381,19.185 1.1,20.349C2.454,22.566 4.162,24.547 6.157,26.212L1.957,30.412C1.813,30.55 1.699,30.716 1.621,30.899C1.542,31.082 1.501,31.279 1.499,31.478C1.497,31.677 1.535,31.875 1.61,32.059C1.686,32.243 1.797,32.411 1.938,32.552C2.079,32.693 2.246,32.804 2.431,32.879C2.615,32.955 2.813,32.993 3.012,32.991C3.211,32.989 3.408,32.948 3.591,32.869C3.774,32.791 3.939,32.676 4.078,32.533L8.656,27.955C11.484,29.637 14.717,30.515 18.007,30.495C27.293,30.495 32.585,24.138 34.913,20.349C35.632,19.185 36.013,17.845 36.013,16.477C36.013,15.109 35.632,13.769 34.913,12.606ZM3.656,18.778C3.229,18.087 3.003,17.29 3.003,16.477C3.003,15.664 3.229,14.868 3.656,14.176C5.657,10.927 10.18,5.46 18.007,5.46C20.497,5.446 22.953,6.046 25.156,7.207L22.136,10.227C20.696,9.27 18.97,8.842 17.25,9.014C15.53,9.186 13.922,9.948 12.7,11.17C11.477,12.392 10.716,14 10.544,15.72C10.372,17.44 10.8,19.166 11.756,20.607L8.291,24.072C6.454,22.586 4.886,20.795 3.656,18.778ZM22.507,16.477C22.507,17.671 22.033,18.815 21.189,19.659C20.345,20.503 19.2,20.977 18.007,20.977C17.338,20.974 16.679,20.821 16.079,20.527L22.057,14.55C22.35,15.15 22.504,15.809 22.507,16.477ZM13.507,16.477C13.507,15.284 13.981,14.139 14.825,13.295C15.669,12.451 16.813,11.977 18.007,11.977C18.675,11.98 19.334,12.133 19.934,12.427L13.957,18.405C13.663,17.804 13.509,17.145 13.507,16.477ZM32.357,18.778C30.356,22.027 25.834,27.495 18.007,27.495C15.516,27.509 13.061,26.908 10.858,25.747L13.877,22.728C15.317,23.684 17.044,24.112 18.764,23.94C20.484,23.768 22.091,23.006 23.314,21.784C24.536,20.562 25.298,18.954 25.47,17.234C25.642,15.514 25.213,13.788 24.257,12.348L27.722,8.883C29.56,10.368 31.127,12.159 32.357,14.176C32.784,14.868 33.011,15.664 33.011,16.477C33.011,17.29 32.784,18.087 32.357,18.778Z" fill="#BDBDBD"/>
</svg>
