<svg width="40" height="38" viewBox="0 0 40 38" fill="none" xmlns="http://www.w3.org/2000/svg" xmlns:xlink="http://www.w3.org/1999/xlink">
<path d="M38.778,14.519C37.274,11.965 35.377,9.684 33.162,7.766L37.827,2.928C38.13,2.602 38.298,2.166 38.294,1.713C38.291,1.26 38.115,0.826 37.806,0.506C37.498,0.186 37.08,0.004 36.643,0C36.206,-0.004 35.785,0.17 35.471,0.485L30.398,5.753C27.253,3.816 23.658,2.806 20,2.833C9.685,2.833 3.808,10.155 1.222,14.519C0.423,15.859 0,17.403 0,18.979C0,20.554 0.423,22.098 1.222,23.438C2.726,25.992 4.623,28.274 6.838,30.192L2.173,35.03C2.014,35.189 1.887,35.38 1.8,35.59C1.713,35.801 1.667,36.028 1.665,36.257C1.663,36.487 1.705,36.714 1.789,36.926C1.872,37.139 1.996,37.332 2.153,37.494C2.309,37.656 2.495,37.784 2.7,37.871C2.905,37.958 3.124,38.002 3.345,38C3.566,37.998 3.785,37.95 3.988,37.86C4.192,37.769 4.375,37.638 4.529,37.473L9.614,32.199C12.755,34.136 16.346,35.148 20,35.125C30.315,35.125 36.192,27.802 38.778,23.438C39.577,22.098 40,20.554 40,18.979C40,17.403 39.577,15.859 38.778,14.519ZM4.061,21.629C3.586,20.833 3.335,19.915 3.335,18.979C3.335,18.043 3.586,17.125 4.061,16.328C6.283,12.586 11.307,6.288 20,6.288C22.766,6.272 25.493,6.964 27.94,8.301L24.587,11.779C22.987,10.678 21.069,10.185 19.159,10.383C17.249,10.581 15.463,11.458 14.106,12.866C12.748,14.274 11.902,16.125 11.711,18.107C11.52,20.088 11.996,22.076 13.058,23.735L9.209,27.726C7.168,26.015 5.427,23.953 4.061,21.629ZM24.998,18.979C24.998,20.353 24.472,21.672 23.534,22.644C22.597,23.616 21.326,24.162 20,24.162C19.258,24.159 18.526,23.982 17.859,23.644L24.498,16.759C24.824,17.45 24.995,18.209 24.998,18.979ZM15.002,18.979C15.002,17.604 15.528,16.286 16.466,15.314C17.403,14.342 18.674,13.796 20,13.796C20.742,13.799 21.474,13.976 22.141,14.314L15.502,21.199C15.176,20.507 15.005,19.748 15.002,18.979ZM35.939,21.629C33.717,25.371 28.693,31.669 20,31.669C17.234,31.685 14.507,30.994 12.06,29.656L15.413,26.178C17.013,27.28 18.931,27.773 20.841,27.575C22.751,27.377 24.537,26.499 25.894,25.092C27.252,23.684 28.098,21.832 28.289,19.851C28.48,17.87 28.004,15.881 26.942,14.222L30.791,10.231C32.832,11.942 34.573,14.005 35.939,16.328C36.414,17.125 36.665,18.043 36.665,18.979C36.665,19.915 36.414,20.833 35.939,21.629Z" fill="#BDBDBD"/>
</svg>
