<svg width="24" height="24" viewBox="0 0 24 24" fill="none" xmlns="http://www.w3.org/2000/svg" xmlns:xlink="http://www.w3.org/1999/xlink">
<path d="M23.442,0.558C23.084,0.201 22.599,0 22.093,0C21.588,0 21.103,0.201 20.745,0.558L12,9.304L3.255,0.558C2.897,0.201 2.412,0 1.907,0C1.401,0 0.916,0.201 0.558,0.558C0.201,0.916 0,1.401 0,1.907C0,2.412 0.201,2.897 0.558,3.255L9.304,12L0.558,20.745C0.201,21.103 0,21.588 0,22.093C0,22.599 0.201,23.084 0.558,23.442C0.916,23.799 1.401,24 1.907,24C2.412,24 2.897,23.799 3.255,23.442L12,14.696L20.745,23.442C21.103,23.799 21.588,24 22.093,24C22.599,24 23.084,23.799 23.442,23.442C23.799,23.084 24,22.599 24,22.093C24,21.588 23.799,21.103 23.442,20.745L14.696,12L23.442,3.255C23.799,2.897 24,2.412 24,1.907C24,1.401 23.799,0.916 23.442,0.558Z" fill="#595454"/>
</svg>
