<svg width="82" height="80" viewBox="0 0 82 80" fill="none" xmlns="http://www.w3.org/2000/svg" xmlns:xlink="http://www.w3.org/1999/xlink">
<path d="M34.011,40C33.102,40 32.23,39.649 31.588,39.024C30.945,38.399 30.584,37.551 30.584,36.667C30.584,33.153 28.253,30 27.156,30C26.059,30 23.728,33.153 23.728,36.667C23.728,37.551 23.367,38.399 22.724,39.024C22.081,39.649 21.21,40 20.3,40C19.391,40 18.519,39.649 17.877,39.024C17.234,38.399 16.873,37.551 16.873,36.667C16.873,30.36 21.096,23.333 27.156,23.333C33.216,23.333 37.439,30.36 37.439,36.667C37.439,37.551 37.078,38.399 36.435,39.024C35.792,39.649 34.921,40 34.011,40ZM64.861,36.667C64.861,30.36 60.638,23.333 54.578,23.333C48.518,23.333 44.295,30.36 44.295,36.667C44.295,37.551 44.656,38.399 45.299,39.024C45.942,39.649 46.813,40 47.722,40C48.632,40 49.503,39.649 50.146,39.024C50.789,38.399 51.15,37.551 51.15,36.667C51.15,33.153 53.481,30 54.578,30C55.675,30 58.006,33.153 58.006,36.667C58.006,37.551 58.367,38.399 59.01,39.024C59.653,39.649 60.524,40 61.433,40C62.343,40 63.214,39.649 63.857,39.024C64.5,38.399 64.861,37.551 64.861,36.667ZM82,40C81.988,29.395 77.651,19.227 69.939,11.728C62.228,4.229 51.772,0.011 40.867,0C-13.634,2 -13.61,78 40.867,80C51.772,79.989 62.228,75.771 69.939,68.272C77.651,60.773 81.988,50.605 82,40ZM75.144,40C75.135,48.838 71.52,57.31 65.094,63.56C58.668,69.809 49.955,73.324 40.867,73.333C-4.547,71.667 -4.53,8.333 40.867,6.667C49.955,6.676 58.668,10.191 65.094,16.441C71.52,22.69 75.135,31.162 75.144,40ZM60.289,52.487C60.944,51.893 61.334,51.073 61.375,50.203C61.417,49.333 61.106,48.482 60.511,47.831C59.915,47.181 59.081,46.783 58.188,46.723C57.294,46.663 56.412,46.946 55.73,47.51C51.695,51.165 46.385,53.198 40.87,53.198C35.356,53.198 30.046,51.165 26.011,47.51C25.333,46.921 24.442,46.619 23.534,46.669C22.627,46.719 21.777,47.117 21.171,47.777C20.566,48.436 20.254,49.303 20.306,50.185C20.357,51.068 20.767,51.895 21.445,52.483C26.888,57.006 33.717,59.649 40.867,60C48.017,59.65 54.846,57.008 60.289,52.487Z" fill="#F0CB26"/>
</svg>
