<svg width="36" height="36" viewBox="0 0 36 36" fill="none" xmlns="http://www.w3.org/2000/svg" xmlns:xlink="http://www.w3.org/1999/xlink">
<path d="M35.343,32.168L28.375,25.197C33.589,18.23 32.167,8.356 25.199,3.142C18.232,-2.072 8.356,-0.65 3.142,6.317C-2.072,13.284 -0.65,23.159 6.318,28.372C11.915,32.56 19.602,32.56 25.199,28.372L32.171,35.343C33.047,36.219 34.467,36.219 35.343,35.343C36.219,34.467 36.219,33.047 35.343,32.171L35.343,32.168ZM15.817,27.027C9.624,27.027 4.604,22.007 4.604,15.815C4.604,9.623 9.624,4.604 15.817,4.604C22.009,4.604 27.029,9.623 27.029,15.815C27.023,22.005 22.006,27.02 15.817,27.027Z" fill="#AAA9A9"/>
</svg>
