<svg width="46" height="46" viewBox="0 0 46 46" fill="none" xmlns="http://www.w3.org/2000/svg" xmlns:xlink="http://www.w3.org/1999/xlink">
<path d="M43.522,40.929L32.578,29.986C35.56,26.339 37.027,21.685 36.674,16.987C36.321,12.289 34.176,7.906 30.682,4.746C27.188,1.585 22.613,-0.112 17.904,0.006C13.194,0.124 8.71,2.047 5.378,5.378C2.047,8.71 0.124,13.194 0.006,17.904C-0.112,22.613 1.585,27.188 4.746,30.682C7.906,34.176 12.289,36.321 16.987,36.674C21.685,37.027 26.339,35.56 29.986,32.578L40.929,43.522C41.275,43.855 41.738,44.04 42.219,44.036C42.699,44.032 43.159,43.839 43.499,43.499C43.839,43.159 44.032,42.699 44.036,42.219C44.04,41.738 43.855,41.275 43.522,40.929ZM18.392,33.059C15.491,33.059 12.656,32.198 10.244,30.587C7.832,28.975 5.952,26.685 4.842,24.005C3.732,21.325 3.441,18.376 4.007,15.531C4.573,12.686 5.97,10.072 8.021,8.021C10.072,5.97 12.686,4.573 15.531,4.007C18.376,3.441 21.325,3.732 24.005,4.842C26.685,5.952 28.975,7.832 30.587,10.244C32.198,12.656 33.059,15.491 33.059,18.392C33.054,22.281 31.508,26.009 28.758,28.758C26.009,31.508 22.281,33.054 18.392,33.059Z" fill="#3498DB"/>
</svg>
