<svg width="82" height="82" viewBox="0 0 82 82" fill="none" xmlns="http://www.w3.org/2000/svg" xmlns:xlink="http://www.w3.org/1999/xlink">
<path d="M41,0C30.13,0.012 19.708,4.349 12.022,12.061C4.335,19.772 0.012,30.227 0,41.133C2.05,95.634 79.95,95.61 82,41.133C81.988,30.227 77.665,19.772 69.978,12.061C62.292,4.349 51.87,0.012 41,0ZM41,75.411C31.941,75.401 23.257,71.786 16.851,65.36C10.446,58.934 6.843,50.221 6.833,41.133C8.542,-4.278 73.458,-4.268 75.167,41.133C75.157,50.221 71.554,58.934 65.148,65.36C58.743,71.786 50.059,75.401 41,75.411ZM60.96,53.274C58.953,56.825 56.054,59.787 52.553,61.866C49.051,63.946 45.069,65.07 41,65.127C36.929,65.07 32.943,63.946 29.438,61.867C25.933,59.788 23.031,56.826 21.019,53.274C20.656,52.705 20.468,52.041 20.48,51.366C20.492,50.691 20.702,50.034 21.085,49.478C21.467,48.922 22.005,48.492 22.63,48.241C23.256,47.991 23.941,47.932 24.6,48.071C29.854,50.057 35.39,51.186 41,51.416C46.6,51.183 52.128,50.054 57.373,48.071C58.032,47.93 58.718,47.988 59.345,48.238C59.972,48.487 60.511,48.917 60.894,49.473C61.278,50.03 61.489,50.687 61.5,51.364C61.512,52.04 61.324,52.705 60.96,53.274ZM19.598,43.718C19.158,43.414 18.83,42.973 18.664,42.465C18.497,41.956 18.501,41.406 18.676,40.9L20.449,35.395L15.782,31.967C15.355,31.654 15.039,31.213 14.877,30.709C14.715,30.204 14.716,29.661 14.88,29.157C15.044,28.653 15.363,28.214 15.79,27.902C16.218,27.591 16.733,27.423 17.261,27.422L23.004,27.422L24.75,21.962C24.918,21.458 25.239,21.02 25.668,20.71C26.097,20.4 26.613,20.233 27.142,20.233C27.671,20.233 28.187,20.4 28.616,20.71C29.045,21.02 29.366,21.458 29.534,21.962L31.276,27.422L37.02,27.422C37.549,27.422 38.065,27.589 38.493,27.901C38.922,28.213 39.241,28.653 39.405,29.158C39.569,29.662 39.57,30.206 39.407,30.712C39.245,31.217 38.927,31.658 38.499,31.971L33.832,35.398L35.605,40.903C35.768,41.41 35.766,41.955 35.6,42.461C35.435,42.967 35.114,43.407 34.684,43.718C34.253,44.029 33.736,44.196 33.205,44.194C32.675,44.192 32.159,44.022 31.731,43.707L27.142,40.321L22.55,43.704C22.124,44.022 21.607,44.195 21.076,44.198C20.545,44.2 20.027,44.032 19.598,43.718ZM65.897,31.971L61.23,35.398L63.003,40.903C63.166,41.41 63.164,41.955 62.999,42.461C62.833,42.967 62.512,43.407 62.082,43.718C61.652,44.029 61.134,44.196 60.604,44.194C60.073,44.192 59.557,44.022 59.129,43.707L54.54,40.321L49.948,43.707C49.521,44.024 49.003,44.194 48.472,44.194C47.941,44.194 47.424,44.024 46.996,43.707C46.557,43.403 46.229,42.963 46.062,42.454C45.895,41.946 45.9,41.396 46.074,40.89L47.85,35.385L43.18,31.957C42.758,31.642 42.445,31.202 42.286,30.7C42.127,30.197 42.129,29.657 42.293,29.155C42.456,28.654 42.773,28.217 43.197,27.906C43.622,27.595 44.133,27.426 44.659,27.422L50.406,27.422L52.152,21.962C52.318,21.457 52.638,21.017 53.068,20.705C53.497,20.394 54.014,20.226 54.544,20.226C55.074,20.226 55.59,20.394 56.02,20.705C56.449,21.017 56.77,21.457 56.935,21.962L58.674,27.422L64.418,27.422C64.947,27.422 65.463,27.589 65.892,27.901C66.32,28.213 66.639,28.653 66.803,29.158C66.968,29.662 66.968,30.206 66.806,30.712C66.643,31.217 66.325,31.658 65.897,31.971Z" fill="#F0CB26"/>
</svg>
