<svg width="40" height="40" viewBox="0 0 40 40" fill="none" xmlns="http://www.w3.org/2000/svg" xmlns:xlink="http://www.w3.org/1999/xlink">
<path d="M31.667,3.333L30,3.333L30,1.667C30,1.225 29.824,0.801 29.512,0.488C29.199,0.176 28.775,0 28.333,0C27.891,0 27.467,0.176 27.155,0.488C26.842,0.801 26.667,1.225 26.667,1.667L26.667,3.333L13.333,3.333L13.333,1.667C13.333,1.225 13.158,0.801 12.845,0.488C12.533,0.176 12.109,0 11.667,0C11.225,0 10.801,0.176 10.488,0.488C10.176,0.801 10,1.225 10,1.667L10,3.333L8.333,3.333C6.124,3.336 4.006,4.215 2.444,5.777C0.881,7.339 0.003,9.457 0,11.667L0,31.667C0.003,33.876 0.881,35.994 2.444,37.556C4.006,39.119 6.124,39.997 8.333,40L31.667,40C33.876,39.997 35.994,39.119 37.556,37.556C39.119,35.994 39.997,33.876 40,31.667L40,11.667C39.997,9.457 39.119,7.339 37.556,5.777C35.994,4.215 33.876,3.336 31.667,3.333ZM3.333,11.667C3.333,10.341 3.86,9.069 4.798,8.131C5.735,7.193 7.007,6.667 8.333,6.667L31.667,6.667C32.993,6.667 34.265,7.193 35.202,8.131C36.14,9.069 36.667,10.341 36.667,11.667L36.667,13.333L3.333,13.333L3.333,11.667ZM31.667,36.667L8.333,36.667C7.007,36.667 5.735,36.14 4.798,35.202C3.86,34.265 3.333,32.993 3.333,31.667L3.333,16.667L36.667,16.667L36.667,31.667C36.667,32.993 36.14,34.265 35.202,35.202C34.265,36.14 32.993,36.667 31.667,36.667Z" fill="#1E40AF"/>
<path d="M20,27.5C21.381,27.5 22.5,26.381 22.5,25C22.5,23.619 21.381,22.5 20,22.5C18.619,22.5 17.5,23.619 17.5,25C17.5,26.381 18.619,27.5 20,27.5Z" fill="#1E40AF"/>
<path d="M11.667,27.5C13.047,27.5 14.167,26.381 14.167,25C14.167,23.619 13.047,22.5 11.667,22.5C10.286,22.5 9.167,23.619 9.167,25C9.167,26.381 10.286,27.5 11.667,27.5Z" fill="#1E40AF"/>
<path d="M28.333,27.5C29.714,27.5 30.833,26.381 30.833,25C30.833,23.619 29.714,22.5 28.333,22.5C26.953,22.5 25.833,23.619 25.833,25C25.833,26.381 26.953,27.5 28.333,27.5Z" fill="#1E40AF"/>
</svg>
