<svg width="82" height="82" viewBox="0 0 82 82" fill="none" xmlns="http://www.w3.org/2000/svg" xmlns:xlink="http://www.w3.org/1999/xlink">
<path d="M64.861,27.333C64.861,28.239 64.5,29.109 63.857,29.749C63.214,30.39 62.343,30.75 61.433,30.75C59.643,30.634 57.867,31.128 56.395,32.151C57.016,32.736 57.481,33.466 57.748,34.275C58.015,35.084 58.075,35.947 57.924,36.785C57.772,37.623 57.414,38.411 56.88,39.076C56.346,39.741 55.655,40.264 54.868,40.596C54.081,40.928 53.224,41.059 52.373,40.978C51.522,40.896 50.705,40.605 49.996,40.13C49.287,39.655 48.708,39.011 48.311,38.257C47.914,37.503 47.711,36.662 47.722,35.81C47.722,32.458 50.149,23.937 61.433,23.917C62.343,23.917 63.214,24.277 63.857,24.917C64.5,25.558 64.861,26.427 64.861,27.333ZM23.728,35.875C23.737,37.234 24.287,38.534 25.257,39.489C26.228,40.444 27.539,40.976 28.902,40.968C30.266,40.959 31.57,40.411 32.529,39.444C33.487,38.476 34.02,37.169 34.011,35.81C34.011,32.458 31.585,23.937 20.3,23.917C19.391,23.917 18.519,24.277 17.877,24.917C17.234,25.558 16.873,26.427 16.873,27.333C16.873,28.239 17.234,29.109 17.877,29.749C18.519,30.39 19.391,30.75 20.3,30.75C22.093,30.633 23.871,31.126 25.346,32.147C24.834,32.625 24.427,33.202 24.148,33.844C23.87,34.485 23.727,35.176 23.728,35.875ZM82,41C81.988,51.87 77.651,62.292 69.939,69.978C62.228,77.665 51.772,81.988 40.867,82C-13.634,79.95 -13.61,2.05 40.867,0C51.772,0.012 62.228,4.335 69.939,12.022C77.651,19.708 81.988,30.13 82,41ZM75.144,41C75.135,31.941 71.52,23.257 65.094,16.852C58.668,10.446 49.955,6.843 40.867,6.833C-4.544,8.542 -4.534,73.458 40.867,75.167C49.955,75.157 58.668,71.554 65.094,65.148C71.52,58.743 75.135,50.059 75.144,41ZM60.289,55.535C54.991,50.684 48.06,47.992 40.867,47.992C33.674,47.992 26.743,50.684 21.445,55.535C20.766,56.137 20.355,56.984 20.302,57.889C20.25,58.793 20.56,59.682 21.164,60.359C21.769,61.036 22.618,61.446 23.526,61.498C24.434,61.551 25.325,61.242 26.004,60.639C30.039,56.89 35.349,54.805 40.865,54.805C46.381,54.805 51.692,56.89 55.726,60.639C56.405,61.242 57.296,61.552 58.204,61.5C59.111,61.448 59.961,61.039 60.566,60.362C61.171,59.686 61.482,58.798 61.43,57.893C61.378,56.988 60.967,56.141 60.289,55.538L60.289,55.535Z" fill="#740D0D"/>
</svg>
