<svg width="20" height="24" viewBox="0 0 20 24" fill="none" xmlns="http://www.w3.org/2000/svg" xmlns:xlink="http://www.w3.org/1999/xlink">
<path d="M10,24C7.348,24 4.804,22.736 2.929,20.485C1.054,18.235 0,15.183 0,12C0,8.817 1.054,5.765 2.929,3.515C4.804,1.264 7.348,0 10,0C12.652,0 15.196,1.264 17.071,3.515C18.946,5.765 20,8.817 20,12C20,15.183 18.946,18.235 17.071,20.485C15.196,22.736 12.652,24 10,24ZM10,21C11.989,21 13.897,20.052 15.303,18.364C16.71,16.676 17.5,14.387 17.5,12C17.5,9.613 16.71,7.324 15.303,5.636C13.897,3.948 11.989,3 10,3C8.011,3 6.103,3.948 4.697,5.636C3.29,7.324 2.5,9.613 2.5,12C2.5,14.387 3.29,16.676 4.697,18.364C6.103,20.052 8.011,21 10,21Z" fill="#EB9481" stroke="#EB9481" stroke-width="1" stroke-miterlimit="3.999327"/>
</svg>
