<svg width="30" height="30" viewBox="0 0 30 30" fill="none" xmlns="http://www.w3.org/2000/svg" xmlns:xlink="http://www.w3.org/1999/xlink">
<path d="M15,0C12.033,0 9.133,0.88 6.666,2.528C4.2,4.176 2.277,6.519 1.142,9.26C0.006,12.001 -0.291,15.017 0.288,17.926C0.867,20.836 2.296,23.509 4.393,25.607C6.491,27.704 9.164,29.133 12.074,29.712C14.983,30.291 17.999,29.994 20.74,28.858C23.481,27.723 25.824,25.8 27.472,23.334C29.12,20.867 30,17.967 30,15C29.996,11.023 28.414,7.21 25.602,4.398C22.79,1.586 18.977,0.004 15,0ZM15,27.5C12.528,27.5 10.111,26.767 8.055,25.393C6,24.02 4.398,22.068 3.452,19.784C2.505,17.499 2.258,14.986 2.74,12.561C3.222,10.137 4.413,7.909 6.161,6.161C7.909,4.413 10.137,3.222 12.561,2.74C14.986,2.258 17.499,2.505 19.784,3.452C22.068,4.398 24.02,6 25.393,8.055C26.767,10.111 27.5,12.528 27.5,15C27.496,18.314 26.178,21.491 23.835,23.835C21.491,26.178 18.314,27.496 15,27.5Z" fill="#595454"/>
<path d="M15,12.5L13.75,12.5C13.418,12.5 13.101,12.632 12.866,12.866C12.632,13.101 12.5,13.418 12.5,13.75C12.5,14.082 12.632,14.399 12.866,14.634C13.101,14.868 13.418,15 13.75,15L15,15L15,22.5C15,22.832 15.132,23.149 15.366,23.384C15.601,23.618 15.918,23.75 16.25,23.75C16.582,23.75 16.899,23.618 17.134,23.384C17.368,23.149 17.5,22.832 17.5,22.5L17.5,15C17.5,14.337 17.237,13.701 16.768,13.232C16.299,12.763 15.663,12.5 15,12.5Z" fill="#595454"/>
<path d="M15,10C16.036,10 16.875,9.161 16.875,8.125C16.875,7.089 16.036,6.25 15,6.25C13.964,6.25 13.125,7.089 13.125,8.125C13.125,9.161 13.964,10 15,10Z" fill="#595454"/>
</svg>
