<svg width="28" height="28" viewBox="0 0 28 28" fill="none" xmlns="http://www.w3.org/2000/svg" xmlns:xlink="http://www.w3.org/1999/xlink">
<path d="M20.675,3.5L19.026,1.363C18.698,0.94 18.277,0.598 17.797,0.362C17.317,0.126 16.789,0.002 16.254,0L11.746,0C11.211,0.002 10.683,0.126 10.203,0.362C9.723,0.598 9.302,0.94 8.974,1.363L7.325,3.5L20.675,3.5Z" fill="#BDBDBD"/>
<path d="M14,21C16.577,21 18.667,18.911 18.667,16.333C18.667,13.756 16.577,11.667 14,11.667C11.423,11.667 9.333,13.756 9.333,16.333C9.333,18.911 11.423,21 14,21Z" fill="#BDBDBD"/>
<path d="M22.167,5.833L5.833,5.833C4.287,5.835 2.804,6.45 1.711,7.544C0.617,8.637 0.002,10.12 0,11.667L0,22.167C0.002,23.713 0.617,25.196 1.711,26.289C2.804,27.383 4.287,27.998 5.833,28L22.167,28C23.713,27.998 25.196,27.383 26.289,26.289C27.383,25.196 27.998,23.713 28,22.167L28,11.667C27.998,10.12 27.383,8.637 26.289,7.544C25.196,6.45 23.713,5.835 22.167,5.833ZM14,23.333C12.616,23.333 11.262,22.923 10.111,22.154C8.96,21.384 8.063,20.291 7.533,19.012C7.003,17.733 6.864,16.326 7.135,14.968C7.405,13.61 8.071,12.363 9.05,11.384C10.029,10.405 11.276,9.738 12.634,9.468C13.992,9.198 15.4,9.336 16.679,9.866C17.958,10.396 19.051,11.293 19.82,12.444C20.589,13.595 21,14.949 21,16.333C20.998,18.189 20.26,19.969 18.948,21.281C17.635,22.593 15.856,23.331 14,23.333Z" fill="#BDBDBD"/>
</svg>
