<svg width="80" height="74" viewBox="0 0 80 74" fill="none" xmlns="http://www.w3.org/2000/svg" xmlns:xlink="http://www.w3.org/1999/xlink">
<path d="M75,6.93L54.982,6.93L54.982,2.321C54.982,1.043 53.864,0.008 52.482,0.008C51.101,0.008 49.982,1.043 49.982,2.321L49.982,6.928L29.983,6.928L29.983,2.321C29.983,1.043 28.864,0.008 27.483,0.008C26.101,0.008 24.983,1.043 24.983,2.321L24.983,6.928L5,6.928C2.239,6.928 0,8.999 0,11.553L0,69.366C0,71.92 2.239,73.991 5,73.991L75,73.991C77.761,73.991 80,71.92 80,69.366L80,11.553C80,9 77.761,6.93 75,6.93ZM75,69.366L5,69.366L5,11.553L24.983,11.553L24.983,13.883C24.983,15.161 26.101,16.196 27.483,16.196C28.864,16.196 29.983,15.161 29.983,13.883L29.983,11.555L49.982,11.555L49.982,13.884C49.982,15.162 51.101,16.197 52.482,16.197C53.864,16.197 54.982,15.162 54.982,13.884L54.982,11.555L75,11.555L75,69.366ZM57.5,36.992L62.5,36.992C63.88,36.992 65,35.956 65,34.68L65,30.055C65,28.778 63.88,27.742 62.5,27.742L57.5,27.742C56.12,27.742 55,28.778 55,30.055L55,34.68C55,35.956 56.12,36.992 57.5,36.992ZM57.5,55.491L62.5,55.491C63.88,55.491 65,54.456 65,53.178L65,48.553C65,47.277 63.88,46.241 62.5,46.241L57.5,46.241C56.12,46.241 55,47.277 55,48.553L55,53.178C55,54.457 56.12,55.491 57.5,55.491ZM42.5,46.241L37.5,46.241C36.12,46.241 35,47.277 35,48.553L35,53.178C35,54.456 36.12,55.491 37.5,55.491L42.5,55.491C43.88,55.491 45,54.456 45,53.178L45,48.553C45,47.278 43.88,46.241 42.5,46.241ZM42.5,27.742L37.5,27.742C36.12,27.742 35,28.778 35,30.055L35,34.68C35,35.956 36.12,36.992 37.5,36.992L42.5,36.992C43.88,36.992 45,35.956 45,34.68L45,30.055C45,28.777 43.88,27.742 42.5,27.742ZM22.5,27.742L17.5,27.742C16.12,27.742 15,28.778 15,30.055L15,34.68C15,35.956 16.12,36.992 17.5,36.992L22.5,36.992C23.88,36.992 25,35.956 25,34.68L25,30.055C25,28.777 23.88,27.742 22.5,27.742ZM22.5,46.241L17.5,46.241C16.12,46.241 15,47.277 15,48.553L15,53.178C15,54.456 16.12,55.491 17.5,55.491L22.5,55.491C23.88,55.491 25,54.456 25,53.178L25,48.553C25,47.278 23.88,46.241 22.5,46.241Z" fill="#EB9481"/>
</svg>
