<svg width="140" height="140" viewBox="0 0 140 140" fill="none" xmlns="http://www.w3.org/2000/svg" xmlns:xlink="http://www.w3.org/1999/xlink">
<path d="M69.913,140C60.008,140 50.803,138.221 42.297,134.662C33.791,131.104 26.392,126.175 20.1,119.875C13.808,113.575 8.885,106.167 5.331,97.65C1.777,89.133 0,79.917 0,70C0,60.2 1.777,51.042 5.331,42.525C8.885,34.008 13.808,26.6 20.1,20.3C26.392,14 33.791,9.042 42.297,5.425C50.803,1.808 60.008,0 69.913,0C78.652,0 86.808,1.4 94.382,4.2C101.956,7 108.772,10.85 114.831,15.75L107.316,23.275C102.189,19.192 96.479,16.042 90.187,13.825C83.895,11.608 77.137,10.5 69.913,10.5C53.017,10.5 38.889,16.188 27.528,27.562C16.167,38.938 10.487,53.083 10.487,70C10.487,86.917 16.167,101.062 27.528,112.438C38.889,123.812 53.017,129.5 69.913,129.5C86.808,129.5 100.936,123.812 112.297,112.438C123.658,101.062 129.338,86.917 129.338,70C129.338,66.5 129.076,63.088 128.552,59.763C128.027,56.438 127.241,53.2 126.192,50.05L134.232,42C136.097,46.317 137.495,50.808 138.427,55.475C139.359,60.142 139.825,64.983 139.825,70C139.825,79.917 138.019,89.133 134.407,97.65C130.795,106.167 125.843,113.575 119.551,119.875C113.258,126.175 105.859,131.104 97.353,134.662C88.847,138.221 79.7,140 69.913,140ZM59.6,101.85L30.762,72.8L38.627,64.925L59.6,85.925L131.96,13.475L140,21.35L59.6,101.85Z" fill="#757373"/>
</svg>
