<svg width="8" height="12" viewBox="0 0 8 12" fill="none" xmlns="http://www.w3.org/2000/svg" xmlns:xlink="http://www.w3.org/1999/xlink">
<path d="M0.43,0.351C0.294,0.463 0.186,0.595 0.112,0.741C0.038,0.886 0,1.042 0,1.2C0,1.358 0.038,1.514 0.112,1.66C0.186,1.805 0.294,1.937 0.43,2.049L4.919,5.718C5.011,5.793 5.062,5.894 5.062,6C5.062,6.106 5.011,6.208 4.919,6.283L0.43,9.951C0.155,10.176 0,10.481 0,10.8C0,11.118 0.155,11.423 0.43,11.648C0.705,11.873 1.079,12 1.468,12C1.858,12 2.231,11.874 2.507,11.649L6.996,7.98C7.315,7.72 7.567,7.411 7.739,7.072C7.911,6.732 8,6.368 8,6C8,5.632 7.911,5.268 7.739,4.928C7.567,4.589 7.315,4.28 6.996,4.02L2.507,0.351C2.231,0.126 1.858,0 1.469,0C1.079,0 0.706,0.126 0.43,0.351Z" fill="#0D9488"/>
</svg>
