<svg width="36" height="36" viewBox="0 0 36 36" fill="none" xmlns="http://www.w3.org/2000/svg" xmlns:xlink="http://www.w3.org/1999/xlink">
<path d="M18,30C21.182,29.996 24.232,28.731 26.481,26.481C28.731,24.232 29.996,21.181 30,18L30,12C30,8.817 28.736,5.765 26.485,3.515C24.235,1.264 21.183,0 18,0C14.817,0 11.765,1.264 9.515,3.515C7.264,5.765 6,8.817 6,12L6,18C6.004,21.181 7.269,24.232 9.519,26.481C11.768,28.731 14.819,29.996 18,30ZM9,13.5L15,13.5L15,10.5L9.135,10.5C9.488,8.404 10.572,6.5 12.194,5.127C13.817,3.755 15.874,3.001 18,3.001C20.126,3.001 22.183,3.755 23.806,5.127C25.428,6.5 26.512,8.404 26.865,10.5L21,10.5L21,13.5L27,13.5L27,16.5L21,16.5L21,19.5L26.865,19.5C26.512,21.596 25.428,23.5 23.806,24.873C22.183,26.245 20.126,26.999 18,26.999C15.874,26.999 13.817,26.245 12.194,24.873C10.572,23.5 9.488,21.596 9.135,19.5L15,19.5L15,16.5L9,16.5L9,13.5Z" fill="#BDBDBD"/>
<path d="M33,19.5C32.996,23.079 31.572,26.511 29.042,29.042C26.511,31.572 23.079,32.996 19.5,33L16.5,33C12.921,32.996 9.49,31.572 6.959,29.041C4.428,26.51 3.004,23.079 3,19.5L0,19.5C0.005,23.874 1.745,28.068 4.838,31.162C7.932,34.255 12.126,35.995 16.5,36L19.5,36C23.874,35.995 28.068,34.255 31.162,31.162C34.255,28.068 35.995,23.874 36,19.5L33,19.5Z" fill="#BDBDBD"/>
</svg>
