<svg width="36" height="36" viewBox="0 0 36 36" fill="none" xmlns="http://www.w3.org/2000/svg" xmlns:xlink="http://www.w3.org/1999/xlink">
<path d="M18,0C13.568,0.003 9.294,1.645 6,4.609L6,1.5C6,1.102 5.842,0.721 5.561,0.439C5.279,0.158 4.898,0 4.5,0C4.102,0 3.721,0.158 3.439,0.439C3.158,0.721 3,1.102 3,1.5L3,6C3,7.193 3.474,8.338 4.318,9.182C5.162,10.026 6.307,10.5 7.5,10.5L12,10.5C12.398,10.5 12.779,10.342 13.061,10.061C13.342,9.779 13.5,9.398 13.5,9C13.5,8.602 13.342,8.221 13.061,7.939C12.779,7.658 12.398,7.5 12,7.5L7.5,7.5C7.449,7.493 7.399,7.482 7.35,7.468C9.794,5.007 13.017,3.47 16.469,3.119C19.92,2.769 23.386,3.628 26.275,5.549C29.164,7.47 31.296,10.333 32.309,13.651C33.321,16.97 33.151,20.536 31.826,23.743C30.502,26.949 28.106,29.596 25.047,31.233C21.988,32.869 18.456,33.393 15.054,32.715C11.651,32.038 8.59,30.2 6.392,27.516C4.193,24.833 2.995,21.469 3,18C3,17.602 2.842,17.221 2.561,16.939C2.279,16.658 1.898,16.5 1.5,16.5C1.102,16.5 0.721,16.658 0.439,16.939C0.158,17.221 0,17.602 0,18C0,21.56 1.056,25.04 3.034,28C5.011,30.96 7.823,33.267 11.112,34.63C14.401,35.992 18.02,36.349 21.512,35.654C25.003,34.96 28.211,33.245 30.728,30.728C33.245,28.211 34.96,25.003 35.654,21.512C36.349,18.02 35.992,14.401 34.63,11.112C33.267,7.823 30.96,5.011 28,3.034C25.04,1.056 21.56,0 18,0Z" fill="#1E40AF"/>
<path d="M18,9C17.602,9 17.221,9.158 16.939,9.439C16.658,9.721 16.5,10.102 16.5,10.5L16.5,18C16.5,18.398 16.658,18.779 16.939,19.06L21.439,23.56C21.722,23.834 22.101,23.985 22.495,23.982C22.888,23.978 23.264,23.82 23.542,23.542C23.82,23.264 23.978,22.888 23.982,22.495C23.985,22.101 23.834,21.722 23.56,21.439L19.5,17.379L19.5,10.5C19.5,10.102 19.342,9.721 19.061,9.439C18.779,9.158 18.398,9 18,9Z" fill="#1E40AF"/>
</svg>
