<svg width="18" height="26" viewBox="0 0 18 26" fill="none" xmlns="http://www.w3.org/2000/svg" xmlns:xlink="http://www.w3.org/1999/xlink">
<path d="M11.872,24.866C10.159,24.865 8.466,24.504 6.901,23.808C5.336,23.112 3.934,22.095 2.786,20.823C1.63,19.55 0.757,18.046 0.226,16.41C-0.305,14.774 -0.481,13.044 -0.292,11.334C0.012,8.674 1.173,6.184 3.015,4.24C4.857,2.297 7.28,1.004 9.92,0.557C11.627,0.293 13.369,0.364 15.049,0.766C15.489,0.879 15.89,1.107 16.212,1.427C16.534,1.748 16.764,2.148 16.88,2.588C16.995,3.027 16.99,3.489 16.867,3.926C16.744,4.363 16.506,4.759 16.178,5.073C11.53,9.32 11.934,15.923 17.001,19.762C17.359,20.043 17.635,20.415 17.801,20.84C17.967,21.264 18.016,21.725 17.943,22.174C17.87,22.624 17.678,23.046 17.387,23.396C17.096,23.746 16.716,24.012 16.287,24.166C14.862,24.631 13.372,24.868 11.872,24.866L11.872,24.866ZM11.95,2.44C11.378,2.439 10.806,2.482 10.24,2.57C8.042,2.942 6.024,4.017 4.49,5.635C2.956,7.253 1.989,9.325 1.735,11.54C1.576,12.967 1.723,14.412 2.165,15.778C2.607,17.144 3.335,18.4 4.301,19.463C5.714,20.972 7.534,22.037 9.541,22.531C11.548,23.025 13.656,22.926 15.607,22.246C15.691,22.215 15.766,22.161 15.823,22.092C15.88,22.023 15.917,21.939 15.932,21.851C15.946,21.762 15.937,21.671 15.905,21.587C15.873,21.503 15.819,21.429 15.749,21.373C9.705,16.808 9.225,8.645 14.783,3.586C14.846,3.527 14.892,3.451 14.915,3.367C14.939,3.283 14.938,3.195 14.913,3.111C14.892,3.023 14.847,2.941 14.783,2.877C14.719,2.812 14.639,2.766 14.55,2.743C13.699,2.538 12.826,2.436 11.95,2.44L11.95,2.44Z" transform="rotate(-40.047 8.805 12.633)" fill="#595454"/>
</svg>
