<svg width="20" height="24" viewBox="0 0 20 24" fill="none" xmlns="http://www.w3.org/2000/svg" xmlns:xlink="http://www.w3.org/1999/xlink">
<path d="M12.344,2.392C11.739,1.876 11.165,1.327 10.624,0.748L10,0L9.376,0.772C8.836,1.343 8.263,1.884 7.66,2.392C4.8,4.973 0,9.287 0,14.354C0,16.912 1.054,19.366 2.929,21.175C4.804,22.984 7.348,24 10,24C12.652,24 15.196,22.984 17.071,21.175C18.946,19.366 20,16.912 20,14.354C20,9.287 15.2,4.974 12.344,2.392ZM10,22.457C7.772,22.457 5.636,21.603 4.06,20.083C2.485,18.564 1.6,16.503 1.6,14.353C1.6,9.955 6.076,5.93 8.748,3.522C9.228,3.09 9.652,2.708 10,2.365C10.348,2.701 10.772,3.083 11.252,3.522C13.924,5.93 18.4,9.959 18.4,14.353C18.4,16.503 17.515,18.563 15.94,20.083C14.364,21.603 12.228,22.457 9.999,22.457L10,22.457Z" fill="#595454"/>
<path d="M6.032,13.725L5.788,13.725C4.75,13.819 3.738,14.092 2.8,14.531C2.858,16.899 4.162,19.076 6.261,20.305C8.36,21.534 10.964,21.647 13.169,20.604C15.373,19.561 16.875,17.506 17.152,15.152C16.098,15.363 15.028,15.493 13.952,15.538L13.792,15.538C12.12,15.538 10.616,14.994 9.288,14.512C8.136,14.118 7.056,13.725 6.032,13.725Z" fill="#595454"/>
</svg>
