<svg width="34" height="34" viewBox="0 0 34 34" fill="none" xmlns="http://www.w3.org/2000/svg" xmlns:xlink="http://www.w3.org/1999/xlink">
<path d="M15.583,26.444L18.417,26.444L18.417,18.417L26.444,18.417L26.444,15.583L18.417,15.583L18.417,7.556L15.583,7.556L15.583,15.583L7.556,15.583L7.556,18.417L15.583,18.417L15.583,26.444ZM2.833,34C2.078,34 1.417,33.717 0.85,33.15C0.283,32.583 0,31.922 0,31.167L0,2.833C0,2.078 0.283,1.417 0.85,0.85C1.417,0.283 2.078,0 2.833,0L31.167,0C31.922,0 32.583,0.283 33.15,0.85C33.717,1.417 34,2.078 34,2.833L34,31.167C34,31.922 33.717,32.583 33.15,33.15C32.583,33.717 31.922,34 31.167,34L2.833,34Z" fill="#595454"/>
</svg>
