<svg width="40" height="40" viewBox="0 0 40 40" fill="none" xmlns="http://www.w3.org/2000/svg" xmlns:xlink="http://www.w3.org/1999/xlink">
<path d="M20,0C16.044,0 12.178,1.173 8.889,3.371C5.6,5.568 3.036,8.692 1.522,12.346C0.009,16.001 -0.387,20.022 0.384,23.902C1.156,27.781 3.061,31.345 5.858,34.142C8.655,36.939 12.219,38.844 16.098,39.616C19.978,40.387 23.999,39.991 27.654,38.478C31.308,36.964 34.432,34.4 36.629,31.111C38.827,27.822 40,23.956 40,20C39.994,14.697 37.885,9.614 34.136,5.864C30.386,2.115 25.303,0.006 20,0ZM20,36.667C16.704,36.667 13.481,35.689 10.74,33.858C8,32.026 5.863,29.423 4.602,26.378C3.341,23.333 3.01,19.982 3.654,16.748C4.297,13.515 5.884,10.546 8.215,8.215C10.546,5.884 13.515,4.297 16.749,3.654C19.982,3.011 23.333,3.341 26.378,4.602C29.424,5.863 32.026,8 33.858,10.74C35.689,13.481 36.667,16.704 36.667,20C36.662,24.419 34.904,28.655 31.78,31.78C28.655,34.904 24.419,36.662 20,36.667Z" fill="#1E40AF"/>
<path d="M21.195,8.438C20.234,8.263 19.246,8.301 18.301,8.55C17.357,8.799 16.478,9.253 15.728,9.879C14.978,10.505 14.375,11.288 13.961,12.173C13.547,13.058 13.333,14.023 13.333,15C13.333,15.442 13.509,15.866 13.822,16.179C14.134,16.491 14.558,16.667 15,16.667C15.442,16.667 15.866,16.491 16.179,16.179C16.491,15.866 16.667,15.442 16.667,15C16.666,14.51 16.774,14.025 16.982,13.581C17.191,13.137 17.494,12.745 17.872,12.432C18.249,12.119 18.691,11.893 19.166,11.77C19.64,11.647 20.136,11.631 20.618,11.722C21.277,11.849 21.882,12.171 22.357,12.644C22.832,13.118 23.155,13.722 23.285,14.38C23.416,15.071 23.326,15.785 23.026,16.421C22.727,17.057 22.234,17.583 21.618,17.922C20.599,18.512 19.756,19.366 19.178,20.393C18.6,21.42 18.309,22.583 18.333,23.762L18.333,25C18.333,25.442 18.509,25.866 18.822,26.179C19.134,26.491 19.558,26.667 20,26.667C20.442,26.667 20.866,26.491 21.179,26.179C21.491,25.866 21.667,25.442 21.667,25L21.667,23.762C21.646,23.182 21.778,22.606 22.05,22.094C22.322,21.581 22.725,21.149 23.217,20.842C24.424,20.178 25.397,19.157 26,17.919C26.604,16.681 26.809,15.286 26.587,13.926C26.366,12.566 25.728,11.308 24.763,10.326C23.797,9.343 22.551,8.684 21.195,8.438Z" fill="#1E40AF"/>
<path d="M21.667,30C21.667,29.08 20.92,28.333 20,28.333C19.08,28.333 18.333,29.08 18.333,30C18.333,30.92 19.08,31.667 20,31.667C20.92,31.667 21.667,30.92 21.667,30Z" fill="#1E40AF"/>
</svg>
