<svg width="62" height="34" viewBox="0 0 62 34" fill="none" xmlns="http://www.w3.org/2000/svg" xmlns:xlink="http://www.w3.org/1999/xlink">
<path d="M16.909,34C12.212,34 8.22,32.347 4.932,29.042C1.644,25.736 0,21.722 0,17C0,12.278 1.644,8.264 4.932,4.958C8.22,1.653 12.212,0 16.909,0L45.091,0C49.788,0 53.78,1.653 57.068,4.958C60.356,8.264 62,12.278 62,17C62,21.722 60.356,25.736 57.068,29.042C53.78,32.347 49.788,34 45.091,34L16.909,34ZM16.909,29.75L45.091,29.75C48.614,29.75 51.608,28.51 54.074,26.031C56.54,23.552 57.773,20.542 57.773,17C57.773,13.458 56.54,10.448 54.074,7.969C51.608,5.49 48.614,4.25 45.091,4.25L16.909,4.25C13.386,4.25 10.392,5.49 7.926,7.969C5.46,10.448 4.227,13.458 4.227,17C4.227,20.542 5.46,23.552 7.926,26.031C10.392,28.51 13.386,29.75 16.909,29.75ZM16.839,24.154C18.811,24.154 20.491,23.458 21.876,22.065C23.262,20.672 23.955,18.983 23.955,17C23.955,15.017 23.262,13.328 21.876,11.935C20.491,10.542 18.811,9.846 16.839,9.846C14.866,9.846 13.187,10.542 11.801,11.935C10.416,13.328 9.723,15.017 9.723,17C9.723,18.983 10.416,20.672 11.801,22.065C13.187,23.458 14.866,24.154 16.839,24.154Z" fill="#595454"/>
</svg>
