<svg width="42" height="42" viewBox="0 0 42 42" fill="none" xmlns="http://www.w3.org/2000/svg" xmlns:xlink="http://www.w3.org/1999/xlink">
<path d="M40.002,18.785C39.761,14.885 38.384,11.141 36.041,8.014C33.697,4.887 30.49,2.514 26.815,1.188C23.139,-0.138 19.156,-0.359 15.356,0.551C11.556,1.461 8.106,3.463 5.43,6.311C2.754,9.159 0.971,12.727 0.298,16.576C-0.374,20.425 0.095,24.387 1.647,27.973C3.2,31.559 5.767,34.612 9.034,36.756C12.3,38.901 16.123,40.042 20.03,40.04L31.669,40.04C33.878,40.038 35.996,39.159 37.559,37.597C39.121,36.034 40,33.916 40.002,31.707L40.002,18.785ZM36.669,31.707C36.669,33.033 36.142,34.305 35.204,35.242C34.266,36.18 32.995,36.707 31.669,36.707L20.03,36.707C17.678,36.706 15.353,36.209 13.206,35.249C11.059,34.289 9.139,32.887 7.57,31.135C5.994,29.384 4.81,27.316 4.098,25.07C3.387,22.824 3.163,20.451 3.444,18.112C3.886,14.422 5.544,10.984 8.156,8.34C10.768,5.696 14.186,3.997 17.87,3.51C18.589,3.42 19.313,3.374 20.037,3.373C23.921,3.363 27.685,4.72 30.669,7.207C32.411,8.655 33.841,10.442 34.873,12.459C35.904,14.477 36.515,16.683 36.669,18.943L36.669,31.707Z" fill="#1E40AF"/>
<path d="M13.335,15.04L20.002,15.04C20.444,15.04 20.868,14.864 21.18,14.552C21.493,14.239 21.669,13.815 21.669,13.373C21.669,12.931 21.493,12.507 21.18,12.195C20.868,11.882 20.444,11.707 20.002,11.707L13.335,11.707C12.893,11.707 12.469,11.882 12.157,12.195C11.844,12.507 11.669,12.931 11.669,13.373C11.669,13.815 11.844,14.239 12.157,14.552C12.469,14.864 12.893,15.04 13.335,15.04Z" fill="#1E40AF"/>
<path d="M26.669,18.373L13.335,18.373C12.893,18.373 12.469,18.549 12.157,18.861C11.844,19.174 11.669,19.598 11.669,20.04C11.669,20.482 11.844,20.906 12.157,21.219C12.469,21.531 12.893,21.707 13.335,21.707L26.669,21.707C27.111,21.707 27.535,21.531 27.847,21.219C28.16,20.906 28.335,20.482 28.335,20.04C28.335,19.598 28.16,19.174 27.847,18.861C27.535,18.549 27.111,18.373 26.669,18.373Z" fill="#1E40AF"/>
<path d="M26.669,25.04L13.335,25.04C12.893,25.04 12.469,25.216 12.157,25.528C11.844,25.841 11.669,26.265 11.669,26.707C11.669,27.149 11.844,27.573 12.157,27.885C12.469,28.198 12.893,28.373 13.335,28.373L26.669,28.373C27.111,28.373 27.535,28.198 27.847,27.885C28.16,27.573 28.335,27.149 28.335,26.707C28.335,26.265 28.16,25.841 27.847,25.528C27.535,25.216 27.111,25.04 26.669,25.04Z" fill="#1E40AF"/>
</svg>
