<svg width="66" height="62" viewBox="0 0 66 62" fill="none" xmlns="http://www.w3.org/2000/svg" xmlns:xlink="http://www.w3.org/1999/xlink">
<path d="M46.079,36.511C47.522,36.511 48.807,35.951 49.933,34.832C51.059,33.712 51.622,32.406 51.622,30.914C51.622,29.479 51.059,28.216 49.933,27.125C48.807,26.034 47.522,25.489 46.079,25.489C44.635,25.489 43.35,26.034 42.224,27.125C41.098,28.216 40.535,29.479 40.535,30.914C40.535,32.406 41.098,33.712 42.224,34.832C43.35,35.951 44.635,36.511 46.079,36.511ZM5.197,52.269C5.197,52.269 5.197,53.03 5.197,54.551C5.197,56.073 5.197,56.833 5.197,56.833L5.197,5.167C5.197,5.167 5.197,5.942 5.197,7.492C5.197,9.042 5.197,9.817 5.197,9.817C5.197,9.817 5.197,10.907 5.197,13.089C5.197,15.27 5.197,17.997 5.197,21.269L5.197,40.817C5.197,44.089 5.197,46.816 5.197,48.997C5.197,51.179 5.197,52.269 5.197,52.269ZM5.197,62C3.869,62 2.671,61.483 1.602,60.45C0.534,59.417 0,58.211 0,56.833L0,5.167C0,3.846 0.534,2.655 1.602,1.593C2.671,0.531 3.869,0 5.197,0L57.165,0C58.551,0 59.764,0.531 60.803,1.593C61.843,2.655 62.362,3.846 62.362,5.167L62.362,16.706L57.165,16.706L57.165,5.167L5.197,5.167L5.197,56.833L57.165,56.833L57.165,45.381L62.362,45.381L62.362,56.833C62.362,58.211 61.843,59.417 60.803,60.45C59.764,61.483 58.551,62 57.165,62L5.197,62ZM36.205,47.103C34.241,47.103 32.682,46.529 31.528,45.381C30.373,44.232 29.795,42.711 29.795,40.817L29.795,21.269C29.795,19.318 30.373,17.782 31.528,16.662C32.682,15.543 34.241,14.983 36.205,14.983L59.591,14.983C61.554,14.983 63.113,15.543 64.268,16.662C65.423,17.782 66,19.318 66,21.269L66,40.817C66,42.711 65.423,44.232 64.268,45.381C63.113,46.529 61.554,47.103 59.591,47.103L36.205,47.103ZM60.803,41.936L60.803,20.15L34.992,20.15L34.992,41.936L60.803,41.936Z" fill="#757373"/>
</svg>
