<svg width="26" height="26" viewBox="0 0 26 26" fill="none" xmlns="http://www.w3.org/2000/svg" xmlns:xlink="http://www.w3.org/1999/xlink">
<path d="M13,0C5.82,0 0,5.82 0,13C0,20.18 5.82,26 13,26C20.18,26 26,20.18 26,13C26,5.82 20.18,0 13,0ZM13,23.294C7.315,23.294 2.706,18.685 2.706,13C2.706,7.315 7.315,2.706 13,2.706C18.685,2.706 23.294,7.315 23.294,13C23.294,18.685 18.685,23.294 13,23.294Z" fill="#595454"/>
<path d="M21.22,12.999C21.22,17.538 17.538,21.221 12.999,21.221L12.999,4.778C17.538,4.778 21.22,8.46 21.22,12.999Z" fill="#595454"/>
</svg>
