<svg width="44" height="48" viewBox="0 0 44 48" fill="none" xmlns="http://www.w3.org/2000/svg" xmlns:xlink="http://www.w3.org/1999/xlink">
<path d="M21.593,16C20.011,16 18.464,16.469 17.149,17.348C15.833,18.227 14.808,19.477 14.202,20.939C13.597,22.4 13.438,24.009 13.747,25.561C14.056,27.113 14.818,28.538 15.936,29.657C17.055,30.776 18.481,31.538 20.032,31.846C21.584,32.155 23.193,31.997 24.655,31.391C26.116,30.786 27.366,29.76 28.245,28.445C29.124,27.129 29.593,25.582 29.593,24C29.593,21.878 28.75,19.843 27.25,18.343C25.75,16.843 23.715,16 21.593,16ZM21.593,28C20.802,28 20.029,27.765 19.371,27.326C18.713,26.886 18.2,26.262 17.898,25.531C17.595,24.8 17.516,23.996 17.67,23.22C17.824,22.444 18.205,21.731 18.765,21.172C19.324,20.612 20.037,20.231 20.813,20.077C21.589,19.923 22.393,20.002 23.124,20.304C23.855,20.607 24.48,21.12 24.919,21.778C25.359,22.436 25.593,23.209 25.593,24C25.593,25.061 25.172,26.078 24.422,26.828C23.671,27.579 22.654,28 21.593,28Z" fill="#1E40AF"/>
<path d="M40.181,27.8L39.293,27.288C39.693,25.113 39.693,22.883 39.293,20.708L40.181,20.196C40.864,19.802 41.463,19.277 41.943,18.652C42.423,18.027 42.775,17.313 42.979,16.552C43.184,15.79 43.236,14.996 43.133,14.214C43.031,13.433 42.775,12.679 42.381,11.996C41.987,11.313 41.463,10.715 40.837,10.234C40.212,9.754 39.498,9.402 38.737,9.198C37.975,8.993 37.181,8.941 36.399,9.044C35.618,9.146 34.864,9.402 34.181,9.796L33.291,10.31C31.61,8.874 29.678,7.76 27.593,7.026L27.593,6C27.593,4.409 26.961,2.883 25.836,1.757C24.711,0.632 23.184,0 21.593,0C20.002,0 18.476,0.632 17.351,1.757C16.225,2.883 15.593,4.409 15.593,6L15.593,7.026C13.508,7.763 11.577,8.879 9.897,10.318L9.003,9.8C7.624,9.004 5.985,8.789 4.448,9.202C2.91,9.614 1.599,10.621 0.803,12C0.008,13.379 -0.208,15.018 0.205,16.556C0.618,18.093 1.624,19.404 3.003,20.2L3.891,20.712C3.491,22.887 3.491,25.117 3.891,27.292L3.003,27.804C1.624,28.6 0.618,29.911 0.205,31.448C-0.208,32.986 0.008,34.625 0.803,36.004C1.599,37.383 2.91,38.39 4.448,38.802C5.985,39.215 7.624,39 9.003,38.204L9.893,37.69C11.575,39.126 13.507,40.24 15.593,40.974L15.593,42C15.593,43.591 16.225,45.117 17.351,46.243C18.476,47.368 20.002,48 21.593,48C23.184,48 24.711,47.368 25.836,46.243C26.961,45.117 27.593,43.591 27.593,42L27.593,40.974C29.678,40.237 31.609,39.121 33.289,37.682L34.183,38.198C35.562,38.994 37.201,39.209 38.739,38.796C40.277,38.384 41.587,37.377 42.383,35.998C43.179,34.619 43.394,32.98 42.981,31.442C42.569,29.905 41.562,28.594 40.183,27.798L40.181,27.8ZM35.085,20.248C35.762,22.702 35.762,25.294 35.085,27.748C34.967,28.175 34.994,28.629 35.162,29.04C35.33,29.45 35.629,29.793 36.013,30.014L38.181,31.266C38.641,31.531 38.976,31.968 39.114,32.481C39.251,32.993 39.179,33.539 38.914,33.999C38.649,34.459 38.212,34.794 37.699,34.932C37.187,35.069 36.641,34.997 36.181,34.732L34.009,33.476C33.625,33.253 33.178,33.165 32.738,33.225C32.298,33.285 31.89,33.489 31.579,33.806C29.799,35.623 27.556,36.92 25.093,37.556C24.663,37.667 24.282,37.917 24.01,38.268C23.738,38.619 23.591,39.05 23.591,39.494L23.591,42C23.591,42.53 23.38,43.039 23.005,43.414C22.63,43.789 22.122,44 21.591,44C21.061,44 20.552,43.789 20.177,43.414C19.802,43.039 19.591,42.53 19.591,42L19.591,39.496C19.591,39.052 19.444,38.621 19.172,38.27C18.9,37.919 18.519,37.669 18.089,37.558C15.626,36.919 13.384,35.62 11.605,33.8C11.294,33.483 10.887,33.279 10.447,33.219C10.007,33.159 9.559,33.247 9.175,33.47L7.007,34.724C6.78,34.857 6.528,34.944 6.267,34.98C6.005,35.016 5.74,35 5.485,34.932C5.23,34.865 4.99,34.748 4.781,34.587C4.571,34.427 4.396,34.227 4.264,33.999C4.132,33.77 4.046,33.518 4.012,33.256C3.978,32.995 3.996,32.729 4.066,32.475C4.135,32.22 4.253,31.982 4.415,31.773C4.577,31.565 4.778,31.39 5.007,31.26L7.175,30.008C7.559,29.787 7.859,29.444 8.027,29.034C8.195,28.623 8.221,28.169 8.103,27.742C7.426,25.288 7.426,22.696 8.103,20.242C8.219,19.816 8.191,19.363 8.023,18.955C7.855,18.546 7.556,18.205 7.173,17.984L5.005,16.732C4.546,16.467 4.21,16.03 4.073,15.517C3.935,15.005 4.007,14.459 4.272,13.999C4.537,13.539 4.974,13.204 5.487,13.066C5.999,12.929 6.546,13.001 7.005,13.266L9.177,14.522C9.56,14.745 10.007,14.834 10.446,14.776C10.886,14.718 11.293,14.515 11.605,14.2C13.385,12.383 15.628,11.086 18.091,10.45C18.522,10.339 18.904,10.088 19.176,9.735C19.449,9.383 19.595,8.949 19.593,8.504L19.593,6C19.593,5.47 19.804,4.961 20.179,4.586C20.554,4.211 21.063,4 21.593,4C22.124,4 22.632,4.211 23.007,4.586C23.382,4.961 23.593,5.47 23.593,6L23.593,8.504C23.593,8.948 23.74,9.379 24.012,9.73C24.284,10.081 24.665,10.331 25.095,10.442C27.559,11.08 29.802,12.38 31.581,14.2C31.892,14.517 32.3,14.721 32.74,14.781C33.18,14.841 33.627,14.753 34.011,14.53L36.179,13.276C36.407,13.143 36.658,13.056 36.92,13.02C37.181,12.984 37.447,13 37.702,13.068C37.957,13.135 38.196,13.252 38.406,13.413C38.615,13.573 38.791,13.773 38.923,14.001C39.055,14.23 39.14,14.482 39.174,14.744C39.208,15.005 39.19,15.271 39.121,15.525C39.052,15.78 38.933,16.018 38.771,16.227C38.61,16.435 38.408,16.61 38.179,16.74L36.011,17.992C35.629,18.213 35.331,18.555 35.164,18.963C34.996,19.372 34.969,19.824 35.085,20.25L35.085,20.248Z" fill="#1E40AF"/>
</svg>
