<svg width="14" height="8" viewBox="0 0 14 8" fill="none" xmlns="http://www.w3.org/2000/svg" xmlns:xlink="http://www.w3.org/1999/xlink">
<path d="M13.417,6.602L11.821,6.602C11.506,7.611 10.312,8.207 9.153,7.934C8.408,7.758 7.826,7.251 7.624,6.602L0.583,6.602C0.261,6.602 0,6.375 0,6.095C0,5.814 0.261,5.587 0.583,5.587L7.624,5.587C7.939,4.578 9.133,3.982 10.292,4.256C11.037,4.432 11.619,4.938 11.821,5.587L13.417,5.587C13.739,5.587 14,5.814 14,6.095C14,6.375 13.739,6.602 13.417,6.602Z" fill="#595454"/>
<path d="M13.417,2.413L6.376,2.413C6.061,3.422 4.867,4.017 3.708,3.743C2.963,3.567 2.382,3.061 2.179,2.413L0.583,2.413C0.261,2.413 0,2.185 0,1.905C0,1.624 0.261,1.397 0.583,1.397L2.179,1.397C2.494,0.388 3.689,-0.207 4.848,0.067C5.593,0.243 6.174,0.749 6.376,1.397L13.417,1.397C13.739,1.397 14,1.624 14,1.905C14,2.185 13.739,2.413 13.417,2.413Z" fill="#595454"/>
</svg>
