<svg width="76" height="56" viewBox="0 0 76 56" fill="none" xmlns="http://www.w3.org/2000/svg" xmlns:xlink="http://www.w3.org/1999/xlink">
<path d="M42.125,32.125C39.278,32.125 36.858,31.129 34.865,29.136C32.871,27.142 31.875,24.722 31.875,21.875C31.875,19.028 32.871,16.608 34.865,14.615C36.858,12.622 39.278,11.625 42.125,11.625C44.972,11.625 47.392,12.622 49.385,14.615C51.378,16.608 52.375,19.028 52.375,21.875C52.375,24.722 51.378,27.142 49.385,29.136C47.392,31.129 44.972,32.125 42.125,32.125ZM14.792,44.083C13.368,44.083 12.158,43.585 11.161,42.589C10.165,41.592 9.667,40.382 9.667,38.958L9.667,4.792C9.667,3.368 10.165,2.158 11.161,1.162C12.158,0.165 13.368,-0.333 14.792,-0.333L69.458,-0.333C70.882,-0.333 72.092,0.165 73.088,1.162C74.085,2.158 74.583,3.368 74.583,4.792L74.583,38.958C74.583,40.382 74.085,41.592 73.088,42.589C72.092,43.585 70.882,44.083 69.458,44.083L14.792,44.083ZM23.333,38.958L60.917,38.958C60.917,36.567 61.742,34.545 63.394,32.894C65.045,31.242 67.067,30.417 69.458,30.417L69.458,13.333C67.067,13.333 65.045,12.508 63.394,10.856C61.742,9.205 60.917,7.183 60.917,4.792L23.333,4.792C23.333,7.183 22.508,9.205 20.856,10.856C19.205,12.508 17.183,13.333 14.792,13.333L14.792,30.417C17.183,30.417 19.205,31.242 20.856,32.894C22.508,34.545 23.333,36.567 23.333,38.958ZM64.333,54.333L4.542,54.333C3.118,54.333 1.908,53.835 0.911,52.839C-0.085,51.842 -0.583,50.632 -0.583,49.208L-0.583,9.917L4.542,9.917L4.542,49.208L64.333,49.208L64.333,54.333Z" fill="#757373"/>
</svg>
