<svg width="44" height="44" viewBox="0 0 44 44" fill="none" xmlns="http://www.w3.org/2000/svg" xmlns:xlink="http://www.w3.org/1999/xlink">
<path d="M42.389,16.587L28.483,2.68C26.762,0.964 24.43,0 22,0C19.57,0 17.238,0.964 15.517,2.68L1.612,16.587C1.099,17.097 0.693,17.703 0.416,18.37C0.139,19.038 -0.002,19.753 0,20.476L0,38.474C0,39.932 0.579,41.331 1.611,42.363C2.642,43.394 4.041,43.974 5.5,43.974L38.5,43.974C39.959,43.974 41.358,43.394 42.389,42.363C43.421,41.331 44,39.932 44,38.474L44,20.476C44.002,19.753 43.861,19.038 43.584,18.37C43.307,17.703 42.901,17.097 42.389,16.587ZM27.5,40.307L16.5,40.307L16.5,33.095C16.5,31.636 17.079,30.237 18.111,29.206C19.142,28.174 20.541,27.595 22,27.595C23.459,27.595 24.858,28.174 25.889,29.206C26.921,30.237 27.5,31.636 27.5,33.095L27.5,40.307ZM40.333,38.474C40.333,38.96 40.14,39.426 39.796,39.77C39.453,40.114 38.986,40.307 38.5,40.307L31.167,40.307L31.167,33.095C31.167,30.663 30.201,28.332 28.482,26.613C26.763,24.894 24.431,23.928 22,23.928C19.569,23.928 17.237,24.894 15.518,26.613C13.799,28.332 12.833,30.663 12.833,33.095L12.833,40.307L5.5,40.307C5.014,40.307 4.547,40.114 4.204,39.77C3.86,39.426 3.667,38.96 3.667,38.474L3.667,20.476C3.668,19.99 3.861,19.524 4.204,19.18L18.11,5.277C19.143,4.249 20.542,3.671 22,3.671C23.458,3.671 24.857,4.249 25.89,5.277L39.796,19.185C40.137,19.528 40.33,19.992 40.333,20.476L40.333,38.474Z" fill="#3498DB"/>
</svg>
