<svg width="42" height="42" viewBox="0 0 42 42" fill="none" xmlns="http://www.w3.org/2000/svg" xmlns:xlink="http://www.w3.org/1999/xlink">
<path d="M30,0C24.48,0 20,4.48 20,10C20,15.52 24.48,20 30,20C35.52,20 40,15.52 40,10C40,4.48 35.52,0 30,0ZM30,16C26.68,16 24,13.32 24,10C24,6.68 26.68,4 30,4C33.32,4 36,6.68 36,10C36,13.32 33.32,16 30,16ZM36,28L32,28C32,25.6 30.5,23.44 28.26,22.6L15.94,18L0,18L0,40L12,40L12,37.12L26,41L42,36L42,34C42,30.68 39.32,28 36,28ZM8,36L4,36L4,22L8,22L8,36ZM25.94,36.82L12,33L12,22L15.22,22L26.86,26.34C27.54,26.6 28,27.26 28,28C28,28 24,27.9 23.4,27.7L18.64,26.12L17.38,29.92L22.14,31.5C23.16,31.84 24.22,32 25.3,32L36,32C36.78,32 37.48,32.48 37.8,33.14L25.94,36.82Z" fill="#3498DB"/>
</svg>
