<svg width="46" height="46" viewBox="0 0 46 46" fill="none" xmlns="http://www.w3.org/2000/svg" xmlns:xlink="http://www.w3.org/1999/xlink">
<path d="M0,23C0,27.549 1.349,31.996 3.876,35.778C6.403,39.56 9.996,42.508 14.198,44.249C18.401,45.99 23.026,46.446 27.487,45.558C31.949,44.671 36.047,42.48 39.263,39.263C42.48,36.047 44.671,31.949 45.558,27.487C46.446,23.026 45.99,18.401 44.249,14.198C42.508,9.996 39.56,6.403 35.778,3.876C31.996,1.349 27.549,0 23,0C16.902,0.007 11.056,2.432 6.744,6.744C2.432,11.056 0.007,16.902 0,23ZM30.667,23C30.668,24.403 30.155,25.758 29.225,26.808C28.668,27.435 28.125,28.029 27.736,28.418L22.323,33.925C22.15,34.116 21.94,34.271 21.705,34.379C21.471,34.487 21.217,34.547 20.959,34.554C20.701,34.562 20.444,34.517 20.203,34.423C19.963,34.329 19.744,34.187 19.56,34.006C19.376,33.825 19.23,33.609 19.131,33.37C19.033,33.132 18.983,32.876 18.986,32.617C18.989,32.359 19.044,32.104 19.148,31.868C19.252,31.631 19.402,31.418 19.59,31.242L25.012,25.722C25.371,25.361 25.858,24.825 26.354,24.267C26.663,23.917 26.833,23.466 26.833,22.999C26.833,22.532 26.663,22.081 26.354,21.731C25.86,21.175 25.373,20.639 25.026,20.29L19.59,14.758C19.402,14.582 19.252,14.369 19.148,14.132C19.044,13.896 18.989,13.641 18.986,13.383C18.983,13.124 19.033,12.868 19.131,12.63C19.23,12.391 19.376,12.175 19.56,11.994C19.744,11.813 19.963,11.671 20.203,11.577C20.444,11.483 20.701,11.438 20.959,11.446C21.217,11.453 21.471,11.513 21.705,11.621C21.94,11.729 22.15,11.884 22.323,12.075L27.746,17.593C28.129,17.976 28.666,18.565 29.22,19.19C30.153,20.24 30.668,21.595 30.667,23Z" fill="#BBB9B9"/>
</svg>
