<svg width="50" height="36" viewBox="0 0 50 36" fill="none" xmlns="http://www.w3.org/2000/svg" xmlns:xlink="http://www.w3.org/1999/xlink">
<path d="M14.583,6L47.917,6C48.469,6 48.999,5.789 49.39,5.414C49.781,5.039 50,4.53 50,4C50,3.47 49.781,2.961 49.39,2.586C48.999,2.211 48.469,2 47.917,2L14.583,2C14.031,2 13.501,2.211 13.11,2.586C12.719,2.961 12.5,3.47 12.5,4C12.5,4.53 12.719,5.039 13.11,5.414C13.501,5.789 14.031,6 14.583,6Z" fill="#3498DB"/>
<path d="M47.917,16L14.583,16C14.031,16 13.501,16.211 13.11,16.586C12.719,16.961 12.5,17.47 12.5,18C12.5,18.53 12.719,19.039 13.11,19.414C13.501,19.789 14.031,20 14.583,20L47.917,20C48.469,20 48.999,19.789 49.39,19.414C49.781,19.039 50,18.53 50,18C50,17.47 49.781,16.961 49.39,16.586C48.999,16.211 48.469,16 47.917,16Z" fill="#3498DB"/>
<path d="M47.917,30L14.583,30C14.031,30 13.501,30.211 13.11,30.586C12.719,30.961 12.5,31.47 12.5,32C12.5,32.53 12.719,33.039 13.11,33.414C13.501,33.789 14.031,34 14.583,34L47.917,34C48.469,34 48.999,33.789 49.39,33.414C49.781,33.039 50,32.53 50,32C50,31.47 49.781,30.961 49.39,30.586C48.999,30.211 48.469,30 47.917,30Z" fill="#3498DB"/>
<path d="M4.167,8C6.468,8 8.333,6.209 8.333,4C8.333,1.791 6.468,0 4.167,0C1.865,0 0,1.791 0,4C0,6.209 1.865,8 4.167,8Z" fill="#3498DB"/>
<path d="M4.167,22C6.468,22 8.333,20.209 8.333,18C8.333,15.791 6.468,14 4.167,14C1.865,14 0,15.791 0,18C0,20.209 1.865,22 4.167,22Z" fill="#3498DB"/>
<path d="M4.167,36C6.468,36 8.333,34.209 8.333,32C8.333,29.791 6.468,28 4.167,28C1.865,28 0,29.791 0,32C0,34.209 1.865,36 4.167,36Z" fill="#3498DB"/>
</svg>
