<svg width="30" height="32" viewBox="0 0 30 32" fill="none" xmlns="http://www.w3.org/2000/svg" xmlns:xlink="http://www.w3.org/1999/xlink">
<path d="M11.25,30.008L1.25,30.008C0.918,30.008 0.601,29.877 0.366,29.642C0.132,29.408 0,29.09 0,28.758C0,28.427 0.132,28.109 0.366,27.874C0.601,27.64 0.918,27.508 1.25,27.508L11.25,27.508C11.582,27.508 11.899,27.64 12.134,27.874C12.368,28.109 12.5,28.427 12.5,28.758C12.5,29.09 12.368,29.408 12.134,29.642C11.899,29.877 11.582,30.008 11.25,30.008Z" fill="#595454"/>
<path d="M8.75,25.008L1.25,25.008C0.918,25.008 0.601,24.877 0.366,24.642C0.132,24.408 0,24.09 0,23.758C0,23.427 0.132,23.109 0.366,22.874C0.601,22.64 0.918,22.508 1.25,22.508L8.75,22.508C9.082,22.508 9.399,22.64 9.634,22.874C9.868,23.109 10,23.427 10,23.758C10,24.09 9.868,24.408 9.634,24.642C9.399,24.877 9.082,25.008 8.75,25.008Z" fill="#595454"/>
<path d="M6.25,20.008L1.25,20.008C0.918,20.008 0.601,19.877 0.366,19.642C0.132,19.408 0,19.09 0,18.758C0,18.427 0.132,18.109 0.366,17.874C0.601,17.64 0.918,17.508 1.25,17.508L6.25,17.508C6.582,17.508 6.899,17.64 7.134,17.874C7.368,18.109 7.5,18.427 7.5,18.758C7.5,19.09 7.368,19.408 7.134,19.642C6.899,19.877 6.582,20.008 6.25,20.008Z" fill="#595454"/>
<path d="M16.25,29.952C15.918,29.967 15.595,29.849 15.35,29.625C15.105,29.401 14.959,29.089 14.944,28.758C14.93,28.426 15.047,28.102 15.271,27.858C15.495,27.613 15.807,27.467 16.139,27.452C18.504,27.236 20.759,26.35 22.639,24.898C24.52,23.446 25.947,21.489 26.755,19.255C27.563,17.021 27.717,14.603 27.2,12.284C26.683,9.966 25.517,7.843 23.837,6.163C22.156,4.484 20.033,3.318 17.714,2.802C15.395,2.287 12.977,2.442 10.744,3.251C8.51,4.06 6.553,5.488 5.103,7.369C3.652,9.25 2.767,11.505 2.551,13.871C2.521,14.201 2.362,14.506 2.107,14.718C1.852,14.931 1.524,15.033 1.194,15.003C0.864,14.974 0.559,14.814 0.346,14.559C0.134,14.305 0.031,13.976 0.061,13.646C0.41,9.8 2.228,6.237 5.138,3.698C8.048,1.159 11.824,-0.16 15.682,0.016C19.54,0.191 23.181,1.848 25.848,4.64C28.515,7.433 30.002,11.147 30,15.008C30.019,18.756 28.627,22.374 26.1,25.142C23.573,27.91 20.097,29.626 16.363,29.947C16.325,29.951 16.286,29.952 16.25,29.952Z" fill="#595454"/>
<path d="M15,7.508C14.668,7.508 14.351,7.64 14.116,7.874C13.882,8.109 13.75,8.427 13.75,8.758L13.75,15.008C13.75,15.34 13.882,15.658 14.116,15.892L17.866,19.642C18.102,19.87 18.418,19.996 18.745,19.993C19.073,19.99 19.387,19.859 19.619,19.627C19.85,19.395 19.982,19.082 19.985,18.754C19.987,18.426 19.861,18.11 19.634,17.875L16.25,14.491L16.25,8.758C16.25,8.427 16.118,8.109 15.884,7.874C15.649,7.64 15.332,7.508 15,7.508Z" fill="#595454"/>
</svg>
