<svg width="18" height="28" viewBox="0 0 18 28" fill="none" xmlns="http://www.w3.org/2000/svg" xmlns:xlink="http://www.w3.org/1999/xlink">
<path d="M0.968,0.82C0.661,1.08 0.418,1.389 0.252,1.728C0.086,2.068 0,2.432 0,2.8C0,3.168 0.086,3.532 0.252,3.872C0.418,4.212 0.661,4.521 0.968,4.781L11.068,13.341C11.274,13.516 11.39,13.753 11.39,14.001C11.39,14.248 11.274,14.486 11.068,14.661L0.968,23.219C0.349,23.744 0,24.457 0,25.199C0,25.942 0.348,26.654 0.967,27.179C1.587,27.705 2.427,28 3.304,28C4.18,28 5.02,27.705 5.64,27.18L15.742,18.62C16.458,18.013 17.026,17.293 17.413,16.5C17.801,15.708 18,14.858 18,14C18,13.142 17.801,12.292 17.413,11.5C17.026,10.707 16.458,9.987 15.742,9.38L5.64,0.82C5.021,0.295 4.18,0 3.304,0C2.428,0 1.588,0.295 0.968,0.82Z" fill="#757373"/>
</svg>
