<svg width="48" height="36" viewBox="0 0 48 36" fill="none" xmlns="http://www.w3.org/2000/svg" xmlns:xlink="http://www.w3.org/1999/xlink">
<path d="M11,28C12.657,28 14,26.657 14,25C14,23.343 12.657,22 11,22C9.343,22 8,23.343 8,25C8,26.657 9.343,28 11,28Z" fill="#1E40AF"/>
<path d="M38,0L10,0C7.349,0.003 4.807,1.058 2.932,2.932C1.058,4.807 0.003,7.349 0,10L0,26C0.003,28.651 1.058,31.193 2.932,33.068C4.807,34.942 7.349,35.997 10,36L38,36C40.651,35.997 43.193,34.942 45.068,33.068C46.942,31.193 47.997,28.651 48,26L48,10C47.997,7.349 46.942,4.807 45.068,2.932C43.193,1.058 40.651,0.003 38,0ZM10,4L38,4C39.591,4 41.117,4.632 42.243,5.757C43.368,6.883 44,8.409 44,10L4,10C4,8.409 4.632,6.883 5.757,5.757C6.883,4.632 8.409,4 10,4ZM38,32L10,32C8.409,32 6.883,31.368 5.757,30.243C4.632,29.117 4,27.591 4,26L4,14L44,14L44,26C44,27.591 43.368,29.117 42.243,30.243C41.117,31.368 39.591,32 38,32Z" fill="#1E40AF"/>
</svg>
