<svg width="62" height="34" viewBox="0 0 62 34" fill="none" xmlns="http://www.w3.org/2000/svg" xmlns:xlink="http://www.w3.org/1999/xlink">
<path d="M16.909,34C12.212,34 8.22,32.347 4.932,29.042C1.644,25.736 0,21.722 0,17C0,12.278 1.644,8.264 4.932,4.958C8.22,1.653 12.212,0 16.909,0L45.091,0C49.788,0 53.78,1.653 57.068,4.958C60.356,8.264 62,12.278 62,17C62,21.722 60.356,25.736 57.068,29.042C53.78,32.347 49.788,34 45.091,34L16.909,34ZM45.091,29.75C48.614,29.75 51.608,28.51 54.074,26.031C56.54,23.552 57.773,20.542 57.773,17C57.773,13.458 56.54,10.448 54.074,7.969C51.608,5.49 48.614,4.25 45.091,4.25L16.909,4.25C13.386,4.25 10.392,5.49 7.926,7.969C5.46,10.448 4.227,13.458 4.227,17C4.227,20.542 5.46,23.552 7.926,26.031C10.392,28.51 13.386,29.75 16.909,29.75L45.091,29.75ZM45.161,24.154C47.134,24.154 48.813,23.458 50.199,22.065C51.584,20.672 52.277,18.983 52.277,17C52.277,15.017 51.584,13.328 50.199,11.935C48.813,10.542 47.134,9.846 45.161,9.846C43.189,9.846 41.509,10.542 40.124,11.935C38.738,13.328 38.045,15.017 38.045,17C38.045,18.983 38.738,20.672 40.124,22.065C41.509,23.458 43.189,24.154 45.161,24.154Z" fill="#595454"/>
</svg>
