<svg width="82" height="82" viewBox="0 0 82 82" fill="none" xmlns="http://www.w3.org/2000/svg" xmlns:xlink="http://www.w3.org/1999/xlink">
<path d="M41,82C32.891,82 24.964,79.595 18.222,75.09C11.479,70.585 6.224,64.182 3.121,56.69C0.018,49.198 -0.794,40.955 0.788,33.001C2.37,25.048 6.275,17.743 12.009,12.009C17.743,6.275 25.048,2.37 33.001,0.788C40.955,-0.794 49.198,0.018 56.69,3.121C64.182,6.224 70.585,11.479 75.09,18.222C79.595,24.964 82,32.891 82,41C81.988,51.87 77.665,62.292 69.978,69.978C62.292,77.665 51.87,81.988 41,82ZM41,6.833C34.242,6.833 27.637,8.837 22.018,12.591C16.399,16.346 12.02,21.682 9.434,27.925C6.848,34.168 6.172,41.038 7.49,47.666C8.808,54.293 12.062,60.381 16.841,65.159C21.619,69.938 27.707,73.192 34.334,74.51C40.962,75.828 47.832,75.152 54.075,72.566C60.318,69.98 65.654,65.601 69.409,59.982C73.163,54.363 75.167,47.758 75.167,41C75.157,31.941 71.554,23.257 65.148,16.852C58.743,10.446 50.059,6.843 41,6.833ZM60.632,60.362C60.932,60.027 61.162,59.637 61.31,59.213C61.459,58.789 61.522,58.34 61.496,57.892C61.471,57.443 61.357,57.004 61.162,56.6C60.967,56.195 60.694,55.833 60.359,55.535C54.934,50.9 48.126,48.192 41,47.833C33.874,48.192 27.066,50.9 21.641,55.535C20.964,56.137 20.554,56.984 20.502,57.889C20.449,58.793 20.758,59.682 21.361,60.359C21.964,61.036 22.81,61.446 23.715,61.498C24.62,61.551 25.508,61.242 26.185,60.639C30.362,57.122 35.552,55.03 41,54.667C46.448,55.031 51.638,57.123 55.815,60.639C56.491,61.24 57.378,61.548 58.281,61.496C59.184,61.445 60.029,61.037 60.632,60.362ZM20.5,34.167C20.5,37.583 23.558,37.583 27.333,37.583C31.109,37.583 34.167,37.583 34.167,34.167C34.167,32.354 33.447,30.616 32.165,29.335C30.884,28.053 29.146,27.333 27.333,27.333C25.521,27.333 23.783,28.053 22.501,29.335C21.22,30.616 20.5,32.354 20.5,34.167ZM47.833,34.167C47.833,37.583 50.891,37.583 54.667,37.583C58.442,37.583 61.5,37.583 61.5,34.167C61.5,32.354 60.78,30.616 59.499,29.335C58.217,28.053 56.479,27.333 54.667,27.333C52.854,27.333 51.116,28.053 49.835,29.335C48.553,30.616 47.833,32.354 47.833,34.167Z" fill="#FF0707"/>
</svg>
