<svg width="42" height="42" viewBox="0 0 42 42" fill="none" xmlns="http://www.w3.org/2000/svg" xmlns:xlink="http://www.w3.org/1999/xlink">
<path d="M38.9,18.453L36.12,18.453C35.757,14.672 34.089,11.136 31.403,8.45C28.717,5.764 25.181,4.096 21.4,3.733L21.4,0.953C21.4,0.555 21.242,0.174 20.961,-0.108C20.679,-0.389 20.298,-0.547 19.9,-0.547C19.502,-0.547 19.121,-0.389 18.839,-0.108C18.558,0.174 18.4,0.555 18.4,0.953L18.4,3.733C14.636,4.115 11.12,5.791 8.454,8.475C5.788,11.16 4.136,14.686 3.78,18.453L1,18.453C0.803,18.453 0.608,18.492 0.426,18.567C0.244,18.643 0.079,18.753 -0.061,18.892C-0.2,19.032 -0.31,19.197 -0.386,19.379C-0.461,19.561 -0.5,19.756 -0.5,19.953C-0.5,20.15 -0.461,20.345 -0.386,20.527C-0.31,20.709 -0.2,20.875 -0.061,21.014C0.079,21.153 0.244,21.264 0.426,21.339C0.608,21.414 0.803,21.453 1,21.453L3.78,21.453C4.143,25.234 5.811,28.771 8.497,31.456C11.182,34.142 14.719,35.81 18.5,36.173L18.5,38.953C18.5,39.351 18.658,39.733 18.939,40.014C19.221,40.295 19.602,40.453 20,40.453C20.398,40.453 20.779,40.295 21.061,40.014C21.342,39.733 21.5,39.351 21.5,38.953L21.5,36.173C25.279,35.806 28.814,34.137 31.499,31.452C34.184,28.767 35.853,25.233 36.22,21.453L39,21.453C39.197,21.453 39.392,21.414 39.574,21.339C39.756,21.264 39.921,21.153 40.061,21.014C40.2,20.875 40.31,20.709 40.386,20.527C40.461,20.345 40.5,20.15 40.5,19.953C40.5,19.756 40.461,19.561 40.386,19.379C40.31,19.197 40.2,19.032 40.061,18.892C39.921,18.753 39.756,18.643 39.574,18.567C39.392,18.492 39.197,18.453 39,18.453L38.9,18.453ZM19.9,33.233C17.273,33.233 14.706,32.454 12.522,30.995C10.338,29.536 8.636,27.462 7.631,25.035C6.626,22.609 6.363,19.938 6.875,17.362C7.388,14.786 8.652,12.42 10.51,10.563C12.367,8.706 14.733,7.441 17.309,6.928C19.885,6.416 22.555,6.679 24.982,7.684C27.409,8.689 29.483,10.391 30.942,12.575C32.401,14.759 33.18,17.327 33.18,19.953C33.18,23.477 31.782,26.857 29.292,29.351C26.802,31.844 23.424,33.248 19.9,33.253L19.9,33.233Z" fill="#000000"/>
</svg>
