<svg width="44" height="44" viewBox="0 0 44 44" fill="none" xmlns="http://www.w3.org/2000/svg" xmlns:xlink="http://www.w3.org/1999/xlink">
<path d="M22,44C19.019,44 16.207,42.691 14.285,40.409C11.462,40.733 8.553,39.664 6.444,37.558C4.338,35.449 3.274,32.534 3.529,29.561C1.309,27.793 0,24.981 0,22C0,19.019 1.309,16.207 3.593,14.285C3.273,11.468 4.336,8.552 6.444,6.444C8.553,4.334 11.462,3.273 14.439,3.529C16.207,1.311 19.019,0 22,0C24.981,0 27.793,1.309 29.715,3.591C32.542,3.269 35.448,4.336 37.556,6.442C39.662,8.551 40.726,11.466 40.471,14.439C42.691,16.207 44,19.019 44,22C44,24.981 42.691,27.793 40.407,29.715C40.728,32.533 39.664,35.448 37.556,37.556C35.446,39.664 32.531,40.726 29.561,40.471C27.793,42.689 24.981,44 22,44ZM14.434,36.806C15.462,36.806 16.416,37.248 17.089,38.045C18.313,39.499 20.103,40.333 22,40.333C23.897,40.333 25.687,39.499 26.912,38.045C27.65,37.167 28.727,36.724 29.874,36.817C31.77,36.977 33.622,36.304 34.964,34.962C36.304,33.621 36.98,31.766 36.819,29.872C36.72,28.728 37.167,27.649 38.047,26.908C39.499,25.685 40.333,23.894 40.333,21.998C40.333,20.103 39.499,18.311 38.047,17.088C37.169,16.35 36.72,15.268 36.819,14.124C36.98,12.23 36.306,10.375 34.964,9.035C33.622,7.695 31.759,7.025 29.876,7.179C28.728,7.284 27.65,6.829 26.912,5.953C25.687,4.499 23.897,3.665 22,3.665C20.103,3.665 18.313,4.499 17.089,5.953C16.348,6.831 15.268,7.271 14.126,7.181C12.221,7.016 10.379,7.695 9.037,9.037C7.696,10.377 7.02,12.232 7.181,14.126C7.28,15.27 6.833,16.35 5.953,17.09C4.501,18.313 3.667,20.104 3.667,22C3.667,23.896 4.501,25.687 5.953,26.91C6.831,27.649 7.28,28.73 7.181,29.874C7.02,31.768 7.695,33.623 9.037,34.964C10.379,36.306 12.25,36.977 14.124,36.819C14.229,36.81 14.331,36.806 14.434,36.806ZM16.5,14.667C15.488,14.667 14.667,15.488 14.667,16.5C14.667,17.512 15.488,18.333 16.5,18.333C17.512,18.333 18.333,17.512 18.333,16.5C18.333,15.488 17.512,14.667 16.5,14.667ZM27.5,25.667C26.488,25.667 25.667,26.488 25.667,27.5C25.667,28.512 26.488,29.333 27.5,29.333C28.512,29.333 29.333,28.512 29.333,27.5C29.333,26.488 28.512,25.667 27.5,25.667ZM19.859,28.518L27.192,17.517C27.755,16.676 27.528,15.536 26.684,14.975C25.839,14.41 24.702,14.641 24.141,15.483L16.808,26.483C16.245,27.324 16.473,28.464 17.316,29.025C17.629,29.234 17.981,29.333 18.332,29.333C18.924,29.333 19.507,29.047 19.859,28.518Z" fill="#3498DB"/>
</svg>
