<svg width="20" height="24" viewBox="0 0 20 24" fill="none" xmlns="http://www.w3.org/2000/svg" xmlns:xlink="http://www.w3.org/1999/xlink">
<path d="M12.344,2.391C11.739,1.875 11.165,1.327 10.624,0.748L10,0L9.376,0.771C8.836,1.342 8.263,1.883 7.66,2.391C4.8,4.971 0,9.283 0,14.347C0.001,14.909 0.053,15.471 0.156,16.024L0.156,16.048C0.188,16.22 0.224,16.39 0.264,16.557L0.264,16.591C0.664,18.208 1.491,19.697 2.664,20.915L2.744,20.996C2.84,21.093 2.937,21.189 3.036,21.281L3.156,21.393L3.432,21.632L3.572,21.748L3.872,21.979L4.044,22.106C4.164,22.191 4.284,22.276 4.408,22.353L4.616,22.481L4.864,22.627L5.084,22.75L5.348,22.889L5.472,22.955C7.515,23.955 9.852,24.249 12.092,23.787C14.332,23.325 16.34,22.135 17.779,20.417C19.219,18.698 20.003,16.556 20,14.347C20,9.283 15.2,4.971 12.344,2.391ZM8.744,3.517C9.224,3.085 9.648,2.703 9.996,2.36C10.344,2.696 10.768,3.078 11.248,3.517C13.788,5.8 17.948,9.545 18.36,13.68C16.909,14.063 15.421,14.299 13.92,14.385C10.904,14.447 8.428,12.399 5.708,12.565C4.278,12.705 2.891,13.113 1.624,13.768C2,9.603 6.192,5.824 8.748,3.521L8.744,3.517Z" fill="#595454"/>
</svg>
