<svg width="14" height="22" viewBox="0 0 14 22" fill="none" xmlns="http://www.w3.org/2000/svg" xmlns:xlink="http://www.w3.org/1999/xlink">
<path d="M0.753,0.644C0.514,0.848 0.325,1.091 0.196,1.358C0.067,1.625 0,1.911 0,2.2C0,2.489 0.067,2.775 0.196,3.042C0.325,3.309 0.514,3.552 0.753,3.756L8.608,10.482C8.769,10.62 8.859,10.806 8.859,11.001C8.859,11.195 8.769,11.382 8.608,11.519L0.753,18.244C0.271,18.656 0,19.216 0,19.799C0,20.383 0.271,20.943 0.752,21.355C1.234,21.768 1.888,22 2.569,22C3.251,22 3.905,21.768 4.387,21.356L12.244,14.63C12.8,14.153 13.242,13.587 13.544,12.965C13.845,12.342 14,11.674 14,11C14,10.326 13.845,9.658 13.544,9.036C13.242,8.413 12.8,7.847 12.244,7.37L4.387,0.644C3.905,0.232 3.251,0 2.57,0C1.889,0 1.235,0.232 0.753,0.644Z" fill="#757373"/>
</svg>
