<svg width="40" height="40" viewBox="0 0 40 40" fill="none" xmlns="http://www.w3.org/2000/svg" xmlns:xlink="http://www.w3.org/1999/xlink">
<path d="M31.093,1.55L10.773,21.87C9.997,22.642 9.382,23.56 8.963,24.571C8.544,25.583 8.33,26.667 8.333,27.762L8.333,30C8.333,30.442 8.509,30.866 8.821,31.179C9.134,31.491 9.558,31.667 10,31.667L12.238,31.667C13.333,31.67 14.417,31.456 15.429,31.037C16.44,30.618 17.358,30.003 18.13,29.227L38.45,8.907C39.424,7.93 39.971,6.607 39.971,5.228C39.971,3.849 39.424,2.526 38.45,1.55C37.459,0.603 36.142,0.075 34.772,0.075C33.401,0.075 32.084,0.603 31.093,1.55ZM36.093,6.55L15.773,26.87C14.834,27.804 13.563,28.33 12.238,28.333L11.667,28.333L11.667,27.762C11.67,26.437 12.196,25.166 13.13,24.227L33.45,3.907C33.806,3.567 34.279,3.377 34.772,3.377C35.264,3.377 35.737,3.567 36.093,3.907C36.443,4.258 36.64,4.733 36.64,5.228C36.64,5.724 36.443,6.199 36.093,6.55Z" fill="#1E40AF"/>
<path d="M38.333,14.965C37.891,14.965 37.467,15.141 37.155,15.453C36.842,15.766 36.667,16.19 36.667,16.632L36.667,25L30,25C28.674,25 27.402,25.527 26.464,26.464C25.527,27.402 25,28.674 25,30L25,36.667L8.333,36.667C7.007,36.667 5.735,36.14 4.798,35.202C3.86,34.265 3.333,32.993 3.333,31.667L3.333,8.333C3.333,7.007 3.86,5.735 4.798,4.798C5.735,3.86 7.007,3.333 8.333,3.333L23.403,3.333C23.845,3.333 24.269,3.158 24.582,2.845C24.894,2.533 25.07,2.109 25.07,1.667C25.07,1.225 24.894,0.801 24.582,0.488C24.269,0.176 23.845,0 23.403,0L8.333,0C6.124,0.003 4.006,0.881 2.444,2.444C0.881,4.006 0.003,6.124 0,8.333L0,31.667C0.003,33.876 0.881,35.994 2.444,37.556C4.006,39.119 6.124,39.997 8.333,40L27.238,40C28.333,40.003 29.418,39.789 30.429,39.37C31.441,38.951 32.359,38.336 33.132,37.56L37.558,33.13C38.335,32.358 38.95,31.44 39.369,30.429C39.788,29.417 40.003,28.333 40,27.238L40,16.632C40,16.19 39.824,15.766 39.512,15.453C39.199,15.141 38.775,14.965 38.333,14.965ZM30.775,35.203C30.105,35.872 29.258,36.334 28.333,36.537L28.333,30C28.333,29.558 28.509,29.134 28.821,28.821C29.134,28.509 29.558,28.333 30,28.333L36.542,28.333C36.335,29.256 35.873,30.102 35.208,30.773L30.775,35.203Z" fill="#1E40AF"/>
</svg>
