<svg width="48" height="42" viewBox="0 0 48 42" fill="none" xmlns="http://www.w3.org/2000/svg" xmlns:xlink="http://www.w3.org/1999/xlink">
<path d="M44.417,17.086L10.25,17.086L21.491,5.845C21.811,5.528 22.065,5.15 22.239,4.733C22.412,4.317 22.501,3.87 22.501,3.419C22.501,2.968 22.412,2.522 22.239,2.105C22.065,1.689 21.811,1.311 21.491,0.994C20.851,0.357 19.985,0 19.082,0C18.179,0 17.313,0.357 16.673,0.994L2.016,15.685C0.733,16.961 0.008,18.693 0,20.503C0.017,22.3 0.741,24.019 2.016,25.286L16.673,39.978C16.992,40.294 17.37,40.545 17.785,40.715C18.2,40.885 18.645,40.972 19.094,40.97C19.543,40.969 19.987,40.879 20.401,40.706C20.816,40.532 21.192,40.279 21.508,39.961C21.824,39.642 22.075,39.264 22.245,38.849C22.415,38.434 22.502,37.989 22.501,37.54C22.499,37.091 22.409,36.647 22.236,36.232C22.063,35.818 21.809,35.442 21.491,35.126L10.25,23.919L44.417,23.919C45.323,23.919 46.192,23.559 46.833,22.919C47.473,22.278 47.833,21.409 47.833,20.503C47.833,19.597 47.473,18.728 46.833,18.087C46.192,17.446 45.323,17.086 44.417,17.086Z" fill="#595454"/>
</svg>
