<svg width="30" height="30" viewBox="0 0 30 30" fill="none" xmlns="http://www.w3.org/2000/svg" xmlns:xlink="http://www.w3.org/1999/xlink">
<path d="M21.25,12.549C16.426,12.549 12.5,16.474 12.5,21.299C12.5,26.096 16.426,30 21.25,30C26.074,30 30,26.075 30,21.25C30,16.453 26.074,12.549 21.25,12.549ZM21.25,27.5C17.804,27.5 15,24.717 15,21.299C15,17.852 17.804,15.049 21.25,15.049C24.696,15.049 27.5,17.831 27.5,21.25C27.5,24.696 24.696,27.5 21.25,27.5ZM23.384,21.616C23.873,22.105 23.873,22.895 23.384,23.384C23.14,23.628 22.82,23.75 22.5,23.75C22.18,23.75 21.86,23.628 21.616,23.384L20.366,22.134C20.131,21.899 20,21.581 20,21.25L20,18.75C20,18.06 20.559,17.5 21.25,17.5C21.941,17.5 22.5,18.06 22.5,18.75L22.5,20.733L23.384,21.616ZM30,8.75L30,11.25C30,11.94 29.441,12.5 28.75,12.5C28.059,12.5 27.5,11.94 27.5,11.25L27.5,8.75C27.5,6.682 25.818,5 23.75,5L6.25,5C4.182,5 2.5,6.682 2.5,8.75L2.5,10L13.75,10C14.44,10 15,10.56 15,11.25C15,11.94 14.44,12.5 13.75,12.5L2.5,12.5L2.5,23.75C2.5,25.818 4.182,27.5 6.25,27.5L11.25,27.5C11.94,27.5 12.5,28.06 12.5,28.75C12.5,29.44 11.94,30 11.25,30L6.25,30C2.804,30 0,27.196 0,23.75L0,8.75C0,5.304 2.804,2.5 6.25,2.5L7.5,2.5L7.5,1.25C7.5,0.56 8.06,0 8.75,0C9.44,0 10,0.56 10,1.25L10,2.5L20,2.5L20,1.25C20,0.56 20.559,0 21.25,0C21.941,0 22.5,0.56 22.5,1.25L22.5,2.5L23.75,2.5C27.196,2.5 30,5.304 30,8.75Z" fill="#AAA9A9"/>
</svg>
