<svg width="40" height="40" viewBox="0 0 40 40" fill="none" xmlns="http://www.w3.org/2000/svg" xmlns:xlink="http://www.w3.org/1999/xlink">
<path d="M38.331,18.332C37.888,18.332 37.464,18.157 37.151,17.844C36.838,17.532 36.662,17.108 36.662,16.666C36.658,13.132 35.25,9.743 32.747,7.244C30.244,4.745 26.849,3.339 23.309,3.336C22.866,3.336 22.442,3.16 22.129,2.847C21.816,2.535 21.64,2.111 21.64,1.669C21.64,1.227 21.816,0.803 22.129,0.491C22.442,0.178 22.866,0.003 23.309,0.003C27.734,0.008 31.977,1.765 35.106,4.889C38.235,8.013 39.995,12.248 40,16.666C40,17.108 39.824,17.532 39.511,17.844C39.198,18.157 38.774,18.332 38.331,18.332ZM33.324,16.666C33.324,14.014 32.269,11.471 30.39,9.596C28.512,7.721 25.965,6.668 23.309,6.668C22.866,6.668 22.442,6.844 22.129,7.156C21.816,7.469 21.64,7.893 21.64,8.334C21.64,8.776 21.816,9.2 22.129,9.513C22.442,9.825 22.866,10.001 23.309,10.001C25.08,10.001 26.778,10.703 28.03,11.953C29.282,13.203 29.985,14.898 29.985,16.666C29.985,17.108 30.161,17.532 30.474,17.844C30.787,18.157 31.212,18.332 31.655,18.332C32.097,18.332 32.522,18.157 32.835,17.844C33.148,17.532 33.324,17.108 33.324,16.666ZM36.967,36.935L38.486,35.187C39.453,34.219 39.996,32.907 39.996,31.54C39.996,30.173 39.453,28.862 38.486,27.894C38.434,27.842 34.419,24.758 34.419,24.758C33.455,23.842 32.175,23.332 30.844,23.333C29.513,23.335 28.234,23.849 27.273,24.768L24.092,27.444C21.495,26.371 19.136,24.796 17.151,22.81C15.165,20.825 13.592,18.467 12.522,15.873L15.192,12.707C16.113,11.747 16.628,10.47 16.63,9.142C16.633,7.813 16.122,6.534 15.204,5.572C15.204,5.572 12.111,1.568 12.059,1.516C11.107,0.559 9.816,0.015 8.465,0C7.114,-0.014 5.811,0.503 4.839,1.439L2.919,3.106C-8.42,16.239 15.998,40.429 29.588,39.994C30.961,40.002 32.32,39.736 33.588,39.21C34.855,38.685 36.004,37.911 36.967,36.935Z" fill="#757373"/>
</svg>
