<svg width="32" height="24" viewBox="0 0 32 24" fill="none" xmlns="http://www.w3.org/2000/svg" xmlns:xlink="http://www.w3.org/1999/xlink">
<path d="M15.754,5.216C20.185,5.216 24.448,6.919 27.66,9.972C27.901,10.208 28.288,10.205 28.526,9.966L30.838,7.632C30.959,7.511 31.026,7.347 31.025,7.175C31.024,7.004 30.955,6.84 30.833,6.72C22.403,-1.359 9.103,-1.359 0.673,6.72C0.551,6.84 0.482,7.004 0.48,7.175C0.479,7.346 0.546,7.511 0.667,7.632L2.98,9.966C3.218,10.206 3.605,10.209 3.846,9.972C7.059,6.919 11.321,5.216 15.754,5.216ZM15.754,12.807C18.189,12.807 20.537,13.712 22.342,15.346C22.586,15.578 22.97,15.573 23.208,15.335L25.518,13.002C25.639,12.879 25.707,12.713 25.705,12.541C25.703,12.368 25.632,12.204 25.508,12.084C20.012,6.971 11.5,6.971 6.004,12.084C5.88,12.204 5.809,12.368 5.807,12.541C5.805,12.714 5.873,12.88 5.995,13.002L8.304,15.335C8.542,15.573 8.926,15.578 9.17,15.346C10.974,13.713 13.32,12.808 15.754,12.807ZM20.38,17.915C20.383,18.088 20.315,18.255 20.192,18.376L16.197,22.407C16.08,22.526 15.92,22.592 15.754,22.592C15.587,22.592 15.427,22.526 15.31,22.407L11.315,18.376C11.192,18.254 11.124,18.088 11.127,17.915C11.131,17.742 11.206,17.578 11.334,17.462C13.885,15.304 17.622,15.304 20.173,17.462C20.301,17.578 20.376,17.742 20.38,17.915Z" clip-rule="evenodd" fill-rule="evenodd" fill="#595454"/>
</svg>
